<svg xmlns="http://www.w3.org/2000/svg" width="500" zoomAndPan="magnify" viewBox="0 0 375 374.999991" height="500"
     preserveAspectRatio="xMidYMid meet" version="1.0"><defs><g/><clipPath id="0e5f0b1f76"><path d="M 37.5 91.351562 L 337.957031 91.351562 L 337.957031 283.644531 L 37.5 283.644531 Z M 37.5 91.351562 " clip-rule="nonzero"/></clipPath><clipPath id="3147dc102f"><path d="M 54.75 91.351562 L 320.25 91.351562 C 324.824219 91.351562 329.210938 93.171875 332.449219 96.40625 C 335.683594 99.640625 337.5 104.027344 337.5 108.601562 L 337.5 266.394531 C 337.5 270.972656 335.683594 275.359375 332.449219 278.59375 C 329.210938 281.828125 324.824219 283.644531 320.25 283.644531 L 54.75 283.644531 C 50.175781 283.644531 45.789062 281.828125 42.550781 278.59375 C 39.316406 275.359375 37.5 270.972656 37.5 266.394531 L 37.5 108.601562 C 37.5 104.027344 39.316406 99.640625 42.550781 96.40625 C 45.789062 93.171875 50.175781 91.351562 54.75 91.351562 Z M 54.75 91.351562 " clip-rule="nonzero"/></clipPath><clipPath id="be0985c284"><path d="M 58 187.152344 L 95 187.152344 L 95 229 L 58 229 Z M 58 187.152344 " clip-rule="nonzero"/></clipPath><clipPath id="8c70d56168"><path d="M 58 187.152344 L 96 187.152344 L 96 229 L 58 229 Z M 58 187.152344 " clip-rule="nonzero"/></clipPath><clipPath id="7da26b8659"><path d="M 264 239 L 318.664062 239 L 318.664062 249 L 264 249 Z M 264 239 " clip-rule="nonzero"/></clipPath><clipPath id="b3d42f2ad6"><path d="M 263 238 L 318.664062 238 L 318.664062 249 L 263 249 Z M 263 238 " clip-rule="nonzero"/></clipPath><clipPath id="65bf043d54"><path d="M 56.164062 191 L 80 191 L 80 196 L 56.164062 196 Z M 56.164062 191 " clip-rule="nonzero"/></clipPath><clipPath id="a2dc2ffabd"><path d="M 56.164062 190 L 80 190 L 80 197 L 56.164062 197 Z M 56.164062 190 " clip-rule="nonzero"/></clipPath><clipPath id="34f73b584c"><path d="M 216 224 L 254 224 L 254 261.402344 L 216 261.402344 Z M 216 224 " clip-rule="nonzero"/></clipPath><clipPath id="2349847c7a"><path d="M 57 213 L 106 213 L 106 261.402344 L 57 261.402344 Z M 57 213 " clip-rule="nonzero"/></clipPath></defs><g clip-path="url(#0e5f0b1f76)"><g clip-path="url(#3147dc102f)"><path fill="#5271ff" d="M 37.5 91.351562 L 337.207031 91.351562 L 337.207031 283.644531 L 37.5 283.644531 Z M 37.5 91.351562 " fill-opacity="1" fill-rule="nonzero"/></g></g><path fill="#ffffff" d="M 160.710938 208.035156 C 159.683594 206.632812 158.402344 205.128906 156.90625 203.628906 C 152.273438 198.996094 147.496094 196.261719 146.230469 197.519531 C 144.988281 198.765625 136.933594 203.449219 141.226562 208.035156 L 160.710938 208.035156 " fill-opacity="1" fill-rule="nonzero"/><path fill="#ffffff" d="M 160.710938 208.035156 L 161.273438 207.625 C 160.222656 206.1875 158.921875 204.660156 157.398438 203.136719 C 155.433594 201.175781 153.441406 199.542969 151.671875 198.386719 C 150.785156 197.8125 149.957031 197.351562 149.199219 197.03125 C 148.441406 196.710938 147.761719 196.519531 147.125 196.519531 C 146.875 196.519531 146.628906 196.550781 146.386719 196.628906 C 146.152344 196.710938 145.925781 196.84375 145.738281 197.027344 C 145.65625 197.109375 145.480469 197.261719 145.25 197.441406 C 144.433594 198.082031 142.976562 199.132812 141.707031 200.4375 C 141.070312 201.097656 140.476562 201.816406 140.027344 202.613281 C 139.582031 203.402344 139.285156 204.273438 139.28125 205.203125 C 139.28125 206.3125 139.734375 207.464844 140.71875 208.507812 C 140.851562 208.648438 141.035156 208.730469 141.226562 208.730469 L 160.710938 208.730469 C 160.972656 208.730469 161.210938 208.582031 161.332031 208.347656 C 161.453125 208.113281 161.425781 207.832031 161.273438 207.625 L 160.710938 208.035156 L 160.710938 207.339844 L 141.226562 207.339844 L 141.226562 208.035156 L 141.734375 207.558594 C 140.941406 206.703125 140.679688 205.949219 140.671875 205.203125 C 140.671875 204.492188 140.941406 203.753906 141.40625 203.015625 C 142.097656 201.910156 143.21875 200.847656 144.261719 199.984375 C 144.785156 199.550781 145.289062 199.167969 145.710938 198.84375 C 146.136719 198.511719 146.476562 198.257812 146.722656 198.011719 L 146.726562 198.011719 L 146.835938 197.945312 C 146.898438 197.925781 146.996094 197.910156 147.125 197.910156 C 147.457031 197.90625 148.003906 198.03125 148.65625 198.3125 C 150.632812 199.140625 153.5625 201.265625 156.414062 204.121094 C 157.886719 205.59375 159.144531 207.070312 160.152344 208.445312 L 160.710938 208.035156 L 160.710938 207.339844 L 160.710938 208.035156 " fill-opacity="1" fill-rule="nonzero"/><path fill="#ffffff" d="M 209.367188 244.703125 L 159.480469 244.703125 L 159.480469 222.324219 L 209.367188 222.324219 L 209.367188 244.703125 " fill-opacity="1" fill-rule="nonzero"/><path fill="#ffffff" d="M 209.367188 244.703125 L 209.367188 244.007812 L 160.175781 244.007812 L 160.175781 223.019531 L 208.671875 223.019531 L 208.671875 244.703125 L 209.367188 244.703125 L 209.367188 244.007812 L 209.367188 244.703125 L 210.0625 244.703125 L 210.0625 222.324219 C 210.0625 222.140625 209.992188 221.964844 209.859375 221.832031 C 209.730469 221.703125 209.554688 221.628906 209.367188 221.628906 L 159.480469 221.628906 C 159.296875 221.628906 159.117188 221.703125 158.992188 221.832031 C 158.859375 221.964844 158.785156 222.144531 158.785156 222.324219 L 158.785156 244.703125 C 158.785156 244.882812 158.859375 245.0625 158.992188 245.191406 C 159.117188 245.324219 159.296875 245.398438 159.480469 245.398438 L 209.367188 245.398438 C 209.554688 245.398438 209.730469 245.324219 209.859375 245.191406 C 209.992188 245.058594 210.0625 244.886719 210.0625 244.703125 L 209.367188 244.703125 " fill-opacity="1" fill-rule="nonzero"/><g clip-path="url(#be0985c284)"><path fill="#ffffff" d="M 85.105469 228.128906 L 58.902344 228.128906 L 58.902344 193.417969 L 78.050781 193.417969 L 75.648438 187.941406 L 94.757812 187.941406 L 94.757812 202.121094 L 85.105469 228.128906 " fill-opacity="1" fill-rule="nonzero"/></g><g clip-path="url(#8c70d56168)"><path fill="#ffffff" d="M 85.105469 228.128906 L 85.105469 227.433594 L 59.597656 227.433594 L 59.597656 194.113281 L 78.050781 194.113281 C 78.28125 194.113281 78.503906 193.996094 78.628906 193.796875 C 78.757812 193.601562 78.78125 193.355469 78.683594 193.136719 L 76.710938 188.636719 L 94.0625 188.636719 L 94.0625 201.996094 L 84.453125 227.886719 L 85.105469 228.128906 L 85.105469 227.433594 L 85.105469 228.128906 L 85.753906 228.371094 L 95.410156 202.363281 C 95.4375 202.289062 95.453125 202.207031 95.453125 202.121094 L 95.453125 187.941406 C 95.453125 187.753906 95.378906 187.578125 95.25 187.449219 C 95.117188 187.316406 94.941406 187.246094 94.757812 187.246094 L 75.648438 187.246094 C 75.410156 187.246094 75.195312 187.363281 75.066406 187.558594 C 74.9375 187.753906 74.917969 188.003906 75.011719 188.21875 L 76.984375 192.71875 L 58.902344 192.71875 C 58.722656 192.71875 58.542969 192.792969 58.410156 192.925781 C 58.28125 193.054688 58.207031 193.234375 58.207031 193.417969 L 58.207031 228.128906 C 58.207031 228.308594 58.28125 228.488281 58.410156 228.621094 C 58.542969 228.75 58.722656 228.824219 58.902344 228.824219 L 85.105469 228.824219 C 85.394531 228.824219 85.65625 228.640625 85.753906 228.371094 L 85.105469 228.128906 " fill-opacity="1" fill-rule="nonzero"/></g><path fill="#ffffff" d="M 285.410156 232.304688 L 238.394531 216.753906 C 237.25 215.984375 235.886719 215.519531 234.421875 215.441406 L 234.359375 215.421875 L 234.179688 215.429688 L 234 215.421875 L 166.042969 215.421875 L 166.042969 206.351562 L 134.785156 206.351562 L 70.167969 229.726562 L 70.167969 244.703125 L 166.042969 244.703125 L 166.042969 237.921875 L 219.988281 232.617188 L 285.410156 248.125 C 289.78125 248.125 293.324219 244.582031 293.324219 240.214844 C 293.324219 235.84375 289.71875 233.578125 285.410156 232.304688 " fill-opacity="1" fill-rule="nonzero"/><path fill="#ffffff" d="M 285.410156 232.304688 L 285.632812 231.644531 L 238.613281 216.09375 L 238.394531 216.753906 L 238.78125 216.175781 C 237.53125 215.339844 236.050781 214.832031 234.460938 214.746094 L 234.421875 215.441406 L 234.648438 214.78125 L 234.582031 214.761719 C 234.5 214.734375 234.410156 214.71875 234.324219 214.722656 L 234.179688 214.734375 L 234.035156 214.722656 L 166.738281 214.722656 L 166.738281 206.351562 C 166.738281 206.164062 166.667969 205.992188 166.535156 205.859375 C 166.402344 205.726562 166.230469 205.65625 166.042969 205.65625 L 134.785156 205.65625 C 134.703125 205.65625 134.625 205.671875 134.546875 205.699219 L 69.933594 229.074219 C 69.65625 229.171875 69.472656 229.4375 69.472656 229.726562 L 69.472656 244.703125 C 69.472656 244.882812 69.546875 245.0625 69.675781 245.191406 C 69.808594 245.324219 69.984375 245.398438 70.167969 245.398438 L 166.042969 245.398438 C 166.230469 245.398438 166.402344 245.324219 166.535156 245.191406 C 166.667969 245.058594 166.738281 244.886719 166.738281 244.703125 L 166.738281 238.554688 L 219.941406 233.320312 L 285.25 248.800781 L 285.410156 248.820312 C 290.167969 248.820312 294.019531 244.96875 294.019531 240.214844 C 294.019531 239.027344 293.769531 237.953125 293.320312 237.011719 C 292.644531 235.597656 291.523438 234.496094 290.183594 233.628906 C 288.84375 232.765625 287.265625 232.128906 285.609375 231.636719 L 285.410156 232.304688 L 285.632812 231.644531 L 285.410156 232.304688 L 285.214844 232.972656 C 287.3125 233.589844 289.203125 234.449219 290.523438 235.621094 C 291.183594 236.203125 291.707031 236.863281 292.066406 237.613281 C 292.421875 238.367188 292.628906 239.214844 292.628906 240.214844 C 292.628906 242.207031 291.820312 244.007812 290.515625 245.316406 C 289.207031 246.621094 287.410156 247.429688 285.410156 247.429688 L 285.410156 248.125 L 285.574219 247.449219 L 220.148438 231.941406 C 220.074219 231.921875 220 231.917969 219.921875 231.925781 L 165.976562 237.230469 C 165.617188 237.265625 165.347656 237.566406 165.347656 237.921875 L 165.347656 244.007812 L 70.863281 244.007812 L 70.863281 230.21875 L 134.90625 207.046875 L 165.347656 207.046875 L 165.347656 215.421875 C 165.347656 215.601562 165.421875 215.78125 165.550781 215.910156 C 165.679688 216.039062 165.859375 216.113281 166.042969 216.113281 L 233.980469 216.113281 L 234.140625 216.125 L 234.214844 216.125 L 234.394531 216.113281 L 234.359375 215.421875 L 234.132812 216.078125 L 234.199219 216.097656 C 234.261719 216.121094 234.320312 216.132812 234.386719 216.132812 C 235.726562 216.203125 236.960938 216.632812 238.007812 217.332031 L 238.175781 217.414062 L 285.195312 232.964844 L 285.214844 232.972656 L 285.410156 232.304688 " fill-opacity="1" fill-rule="nonzero"/><g clip-path="url(#7da26b8659)"><path fill="#ffffff" d="M 318.089844 243.898438 C 318.089844 246.234375 316.195312 248.125 313.863281 248.125 L 268.558594 248.125 C 266.226562 248.125 264.335938 246.234375 264.335938 243.898438 C 264.335938 241.566406 266.226562 239.671875 268.558594 239.671875 L 313.863281 239.671875 C 316.195312 239.671875 318.089844 241.566406 318.089844 243.898438 " fill-opacity="1" fill-rule="nonzero"/></g><g clip-path="url(#b3d42f2ad6)"><path fill="#ffffff" d="M 318.089844 243.898438 L 317.394531 243.898438 C 317.390625 244.875 316.996094 245.753906 316.359375 246.394531 C 315.71875 247.035156 314.839844 247.429688 313.863281 247.429688 L 268.558594 247.429688 C 267.582031 247.429688 266.707031 247.035156 266.066406 246.394531 C 265.425781 245.753906 265.03125 244.875 265.03125 243.898438 C 265.03125 242.921875 265.425781 242.042969 266.066406 241.402344 C 266.707031 240.761719 267.582031 240.367188 268.558594 240.367188 L 313.863281 240.367188 C 314.839844 240.367188 315.71875 240.761719 316.359375 241.402344 C 316.996094 242.042969 317.390625 242.921875 317.394531 243.898438 L 318.78125 243.898438 C 318.78125 241.179688 316.582031 238.976562 313.863281 238.976562 L 268.558594 238.976562 C 265.84375 238.980469 263.640625 241.179688 263.640625 243.898438 C 263.640625 246.617188 265.84375 248.820312 268.558594 248.820312 L 313.863281 248.820312 C 316.582031 248.820312 318.78125 246.617188 318.78125 243.898438 L 318.089844 243.898438 " fill-opacity="1" fill-rule="nonzero"/></g><path fill="#ffffff" d="M 314.132812 242.011719 L 268.289062 242.011719 L 268.289062 239.671875 L 314.132812 239.671875 L 314.132812 242.011719 " fill-opacity="1" fill-rule="nonzero"/><path fill="#ffffff" d="M 314.132812 242.011719 L 314.132812 241.316406 L 268.984375 241.316406 L 268.984375 240.367188 L 313.4375 240.367188 L 313.4375 242.011719 L 314.132812 242.011719 L 314.132812 241.316406 L 314.132812 242.011719 L 314.828125 242.011719 L 314.828125 239.671875 C 314.828125 239.488281 314.757812 239.316406 314.621094 239.179688 C 314.492188 239.050781 314.320312 238.976562 314.132812 238.976562 L 268.289062 238.976562 C 268.109375 238.976562 267.929688 239.054688 267.796875 239.179688 C 267.671875 239.3125 267.59375 239.492188 267.59375 239.671875 L 267.59375 242.011719 C 267.59375 242.195312 267.671875 242.375 267.796875 242.503906 C 267.929688 242.632812 268.109375 242.707031 268.289062 242.707031 L 314.132812 242.707031 C 314.320312 242.707031 314.492188 242.632812 314.621094 242.503906 C 314.757812 242.371094 314.828125 242.195312 314.828125 242.011719 L 314.132812 242.011719 " fill-opacity="1" fill-rule="nonzero"/><path fill="#ffffff" d="M 184.425781 234.996094 C 184.425781 240.359375 180.078125 244.703125 174.71875 244.703125 L 70.167969 244.703125 C 70.167969 232.035156 95.242188 225.292969 100.601562 225.292969 L 166.042969 215.421875 C 183.886719 215.421875 184.425781 229.636719 184.425781 234.996094 " fill-opacity="1" fill-rule="nonzero"/><path fill="#ffffff" d="M 184.425781 234.996094 L 183.730469 234.996094 C 183.730469 237.484375 182.722656 239.734375 181.09375 241.367188 C 179.460938 243 177.210938 244.007812 174.71875 244.007812 L 70.167969 244.007812 L 70.167969 244.703125 L 70.863281 244.703125 C 70.863281 243.234375 71.226562 241.855469 71.878906 240.539062 C 73.019531 238.246094 75.085938 236.15625 77.640625 234.335938 C 81.46875 231.613281 86.378906 229.507812 90.753906 228.101562 C 92.941406 227.398438 94.996094 226.867188 96.710938 226.515625 C 98.421875 226.160156 99.8125 225.988281 100.601562 225.988281 L 100.703125 225.980469 L 166.144531 216.105469 L 166.042969 215.421875 L 166.042969 216.113281 C 170.414062 216.117188 173.667969 216.980469 176.105469 218.332031 C 179.757812 220.355469 181.644531 223.484375 182.652344 226.65625 C 183.652344 229.824219 183.730469 233.007812 183.730469 234.996094 L 185.121094 234.996094 C 185.117188 232.285156 185 227.273438 182.53125 222.859375 C 181.296875 220.652344 179.460938 218.597656 176.777344 217.113281 C 174.101562 215.632812 170.59375 214.722656 166.042969 214.722656 L 165.9375 214.730469 L 100.5 224.605469 L 100.601562 225.292969 L 100.601562 224.597656 C 99.863281 224.597656 98.859375 224.707031 97.636719 224.921875 C 93.363281 225.667969 86.425781 227.683594 80.480469 230.9375 C 77.511719 232.566406 74.785156 234.507812 72.777344 236.789062 C 70.769531 239.066406 69.472656 241.722656 69.472656 244.703125 C 69.472656 244.882812 69.546875 245.0625 69.675781 245.191406 C 69.808594 245.324219 69.984375 245.398438 70.167969 245.398438 L 174.71875 245.398438 C 180.464844 245.398438 185.121094 240.742188 185.121094 234.996094 L 184.425781 234.996094 " fill-opacity="1" fill-rule="nonzero"/><g clip-path="url(#65bf043d54)"><path fill="#ffffff" d="M 79.128906 193.417969 C 79.128906 194.507812 78.242188 195.394531 77.148438 195.394531 L 58.8125 195.394531 C 57.722656 195.394531 56.835938 194.507812 56.835938 193.417969 C 56.835938 192.324219 57.722656 191.4375 58.8125 191.4375 L 77.148438 191.4375 C 78.242188 191.4375 79.128906 192.324219 79.128906 193.417969 " fill-opacity="1" fill-rule="nonzero"/></g><g clip-path="url(#a2dc2ffabd)"><path fill="#ffffff" d="M 79.128906 193.417969 L 78.433594 193.417969 C 78.433594 194.125 77.855469 194.699219 77.148438 194.699219 L 58.8125 194.699219 C 58.105469 194.699219 57.53125 194.125 57.53125 193.417969 C 57.53125 192.710938 58.105469 192.136719 58.8125 192.132812 L 77.148438 192.132812 C 77.855469 192.136719 78.433594 192.710938 78.433594 193.417969 L 79.824219 193.417969 C 79.824219 191.941406 78.625 190.742188 77.148438 190.742188 L 58.8125 190.742188 C 57.335938 190.742188 56.140625 191.941406 56.140625 193.417969 C 56.140625 194.894531 57.335938 196.089844 58.8125 196.089844 L 77.148438 196.089844 C 78.625 196.089844 79.824219 194.894531 79.824219 193.417969 L 79.128906 193.417969 " fill-opacity="1" fill-rule="nonzero"/></g><path fill="#ffffff" d="M 252.753906 243.015625 C 252.753906 252.742188 244.871094 260.625 235.144531 260.625 C 225.417969 260.625 217.535156 252.742188 217.535156 243.015625 C 217.535156 233.289062 225.417969 225.40625 235.144531 225.40625 C 244.871094 225.40625 252.753906 233.289062 252.753906 243.015625 " fill-opacity="1" fill-rule="nonzero"/><g clip-path="url(#34f73b584c)"><path fill="#ffffff" d="M 252.753906 243.015625 L 252.058594 243.015625 C 252.058594 247.691406 250.167969 251.914062 247.105469 254.976562 C 244.042969 258.039062 239.816406 259.929688 235.144531 259.929688 C 230.46875 259.929688 226.246094 258.039062 223.183594 254.976562 C 220.121094 251.914062 218.230469 247.691406 218.230469 243.015625 C 218.230469 238.34375 220.121094 234.117188 223.183594 231.054688 C 226.246094 227.996094 230.46875 226.101562 235.144531 226.101562 C 239.816406 226.101562 244.042969 227.996094 247.105469 231.054688 C 250.167969 234.117188 252.058594 238.34375 252.058594 243.015625 L 253.449219 243.015625 C 253.449219 232.90625 245.253906 224.710938 235.144531 224.710938 C 225.035156 224.710938 216.839844 232.90625 216.839844 243.015625 C 216.839844 253.125 225.035156 261.320312 235.144531 261.320312 C 245.253906 261.320312 253.449219 253.125 253.449219 243.015625 L 252.753906 243.015625 " fill-opacity="1" fill-rule="nonzero"/></g><path fill="#ffffff" d="M 251.433594 243.015625 C 251.433594 252.011719 244.140625 259.304688 235.144531 259.304688 C 226.148438 259.304688 218.855469 252.011719 218.855469 243.015625 C 218.855469 234.019531 226.148438 226.730469 235.144531 226.730469 C 244.140625 226.730469 251.433594 234.019531 251.433594 243.015625 " fill-opacity="1" fill-rule="nonzero"/><path fill="#ffffff" d="M 251.433594 243.015625 L 250.738281 243.015625 C 250.738281 247.324219 248.996094 251.21875 246.167969 254.042969 C 243.347656 256.867188 239.453125 258.609375 235.144531 258.609375 C 230.835938 258.609375 226.941406 256.867188 224.121094 254.042969 C 221.296875 251.21875 219.550781 247.324219 219.550781 243.015625 C 219.550781 238.707031 221.296875 234.8125 224.121094 231.992188 C 226.941406 229.167969 230.835938 227.425781 235.144531 227.425781 C 239.453125 227.425781 243.347656 229.167969 246.167969 231.992188 C 248.996094 234.8125 250.738281 238.707031 250.738281 243.015625 L 252.128906 243.015625 C 252.128906 233.636719 244.527344 226.035156 235.144531 226.035156 C 225.765625 226.035156 218.160156 233.636719 218.160156 243.015625 C 218.160156 252.398438 225.765625 260 235.144531 260 C 244.527344 260 252.128906 252.398438 252.128906 243.015625 L 251.433594 243.015625 " fill-opacity="1" fill-rule="nonzero"/><path fill="#ffffff" d="M 245.328125 243.015625 C 245.328125 248.636719 240.769531 253.195312 235.144531 253.195312 C 229.523438 253.195312 224.964844 248.636719 224.964844 243.015625 C 224.964844 237.394531 229.523438 232.835938 235.144531 232.835938 C 240.769531 232.835938 245.328125 237.394531 245.328125 243.015625 " fill-opacity="1" fill-rule="nonzero"/><path fill="#ffffff" d="M 245.328125 243.015625 L 244.632812 243.015625 C 244.628906 245.636719 243.570312 248.003906 241.851562 249.722656 C 240.132812 251.441406 237.765625 252.5 235.144531 252.5 C 232.523438 252.5 230.15625 251.441406 228.4375 249.722656 C 226.71875 248.003906 225.660156 245.636719 225.660156 243.015625 C 225.660156 240.394531 226.71875 238.027344 228.4375 236.308594 C 230.15625 234.59375 232.523438 233.53125 235.144531 233.53125 C 237.765625 233.53125 240.132812 234.59375 241.851562 236.308594 C 243.570312 238.027344 244.628906 240.394531 244.632812 243.015625 L 246.019531 243.015625 C 246.019531 237.007812 241.152344 232.140625 235.144531 232.140625 C 229.136719 232.140625 224.269531 237.007812 224.269531 243.015625 C 224.269531 249.023438 229.136719 253.890625 235.144531 253.890625 C 241.152344 253.890625 246.019531 249.023438 246.019531 243.015625 L 245.328125 243.015625 " fill-opacity="1" fill-rule="nonzero"/><path fill="#ffffff" d="M 243.96875 243.015625 C 243.96875 247.890625 240.019531 251.839844 235.144531 251.839844 C 230.273438 251.839844 226.320312 247.890625 226.320312 243.015625 C 226.320312 238.144531 230.273438 234.195312 235.144531 234.195312 C 240.019531 234.195312 243.96875 238.144531 243.96875 243.015625 " fill-opacity="1" fill-rule="nonzero"/><path fill="#ffffff" d="M 243.96875 243.015625 L 243.273438 243.015625 C 243.269531 245.265625 242.363281 247.289062 240.890625 248.761719 C 239.417969 250.234375 237.390625 251.140625 235.144531 251.144531 C 232.898438 251.140625 230.871094 250.234375 229.398438 248.761719 C 227.925781 247.289062 227.019531 245.265625 227.019531 243.015625 C 227.019531 240.769531 227.925781 238.742188 229.398438 237.269531 C 230.871094 235.796875 232.898438 234.890625 235.144531 234.890625 C 237.390625 234.890625 239.417969 235.796875 240.890625 237.269531 C 242.363281 238.742188 243.269531 240.769531 243.273438 243.015625 L 244.660156 243.015625 C 244.660156 237.757812 240.402344 233.5 235.144531 233.5 C 229.886719 233.5 225.625 237.757812 225.625 243.015625 C 225.625 248.273438 229.886719 252.53125 235.144531 252.535156 C 240.402344 252.53125 244.660156 248.273438 244.660156 243.015625 L 243.96875 243.015625 " fill-opacity="1" fill-rule="nonzero"/><path fill="#ffffff" d="M 104.878906 237.160156 C 104.878906 250.121094 94.375 260.625 81.417969 260.625 C 68.457031 260.625 57.953125 250.121094 57.953125 237.160156 C 57.953125 224.203125 68.457031 213.699219 81.417969 213.699219 C 94.375 213.699219 104.878906 224.203125 104.878906 237.160156 " fill-opacity="1" fill-rule="nonzero"/><g clip-path="url(#2349847c7a)"><path fill="#ffffff" d="M 104.878906 237.160156 L 104.183594 237.160156 C 104.183594 243.453125 101.640625 249.140625 97.519531 253.261719 C 93.394531 257.386719 87.707031 259.929688 81.417969 259.929688 C 75.125 259.929688 69.4375 257.386719 65.316406 253.261719 C 61.195312 249.140625 58.648438 243.453125 58.648438 237.160156 C 58.648438 230.871094 61.195312 225.183594 65.316406 221.0625 C 69.4375 216.9375 75.125 214.394531 81.417969 214.394531 C 87.707031 214.394531 93.394531 216.9375 97.519531 221.0625 C 101.640625 225.183594 104.183594 230.871094 104.183594 237.160156 L 105.574219 237.160156 C 105.574219 223.816406 94.761719 213.003906 81.417969 213.003906 C 68.070312 213.003906 57.257812 223.816406 57.257812 237.160156 C 57.257812 250.507812 68.070312 261.320312 81.417969 261.320312 C 94.761719 261.320312 105.574219 250.507812 105.574219 237.160156 L 104.878906 237.160156 " fill-opacity="1" fill-rule="nonzero"/></g><path fill="#ffffff" d="M 103.121094 237.160156 C 103.121094 249.148438 93.402344 258.867188 81.417969 258.867188 C 69.429688 258.867188 59.710938 249.148438 59.710938 237.160156 C 59.710938 225.175781 69.429688 215.457031 81.417969 215.457031 C 93.402344 215.457031 103.121094 225.175781 103.121094 237.160156 " fill-opacity="1" fill-rule="nonzero"/><path fill="#ffffff" d="M 103.121094 237.160156 L 102.425781 237.160156 C 102.425781 242.964844 100.074219 248.214844 96.269531 252.015625 C 92.46875 255.820312 87.21875 258.167969 81.417969 258.167969 C 75.613281 258.167969 70.363281 255.820312 66.5625 252.015625 C 62.757812 248.214844 60.40625 242.964844 60.40625 237.160156 C 60.40625 231.359375 62.757812 226.109375 66.5625 222.304688 C 70.363281 218.503906 75.613281 216.152344 81.417969 216.152344 C 87.21875 216.152344 92.46875 218.503906 96.269531 222.304688 C 100.074219 226.109375 102.425781 231.359375 102.425781 237.160156 L 103.816406 237.160156 C 103.816406 224.789062 93.785156 214.761719 81.417969 214.761719 C 69.046875 214.761719 59.015625 224.789062 59.015625 237.160156 C 59.015625 249.53125 69.046875 259.5625 81.417969 259.5625 C 93.785156 259.5625 103.816406 249.53125 103.816406 237.160156 L 103.121094 237.160156 " fill-opacity="1" fill-rule="nonzero"/><path fill="#ffffff" d="M 94.980469 237.160156 C 94.980469 244.652344 88.910156 250.726562 81.417969 250.726562 C 73.925781 250.726562 67.851562 244.652344 67.851562 237.160156 C 67.851562 229.671875 73.925781 223.597656 81.417969 223.597656 C 88.910156 223.597656 94.980469 229.671875 94.980469 237.160156 " fill-opacity="1" fill-rule="nonzero"/><path fill="#ffffff" d="M 94.980469 237.160156 L 94.285156 237.160156 C 94.285156 240.714844 92.847656 243.929688 90.519531 246.261719 C 88.183594 248.589844 84.972656 250.03125 81.417969 250.03125 C 77.863281 250.03125 74.648438 248.589844 72.316406 246.261719 C 69.984375 243.929688 68.546875 240.714844 68.546875 237.160156 C 68.546875 233.605469 69.984375 230.394531 72.316406 228.0625 C 74.648438 225.730469 77.863281 224.292969 81.417969 224.292969 C 84.972656 224.292969 88.183594 225.730469 90.519531 228.0625 C 92.847656 230.394531 94.285156 233.605469 94.285156 237.160156 L 95.675781 237.160156 C 95.675781 229.285156 89.292969 222.902344 81.417969 222.902344 C 73.539062 222.902344 67.15625 229.285156 67.15625 237.160156 C 67.15625 245.039062 73.539062 251.421875 81.417969 251.421875 C 89.292969 251.421875 95.675781 245.039062 95.675781 237.160156 L 94.980469 237.160156 " fill-opacity="1" fill-rule="nonzero"/><path fill="#ffffff" d="M 93.171875 237.160156 C 93.171875 243.65625 87.910156 248.917969 81.417969 248.917969 C 74.925781 248.917969 69.660156 243.65625 69.660156 237.160156 C 69.660156 230.667969 74.925781 225.40625 81.417969 225.40625 C 87.910156 225.40625 93.171875 230.667969 93.171875 237.160156 " fill-opacity="1" fill-rule="nonzero"/><path fill="#ffffff" d="M 93.171875 237.160156 L 92.476562 237.160156 C 92.476562 240.21875 91.242188 242.980469 89.238281 244.980469 C 87.234375 246.984375 84.472656 248.222656 81.417969 248.222656 C 78.359375 248.222656 75.597656 246.984375 73.597656 244.980469 C 71.589844 242.980469 70.355469 240.21875 70.355469 237.160156 C 70.355469 234.105469 71.589844 231.34375 73.597656 229.339844 C 75.597656 227.335938 78.359375 226.101562 81.417969 226.101562 C 84.472656 226.101562 87.234375 227.335938 89.238281 229.339844 C 91.242188 231.34375 92.476562 234.105469 92.476562 237.160156 L 93.867188 237.160156 C 93.867188 230.285156 88.292969 224.710938 81.417969 224.710938 C 74.539062 224.710938 68.964844 230.285156 68.964844 237.160156 C 68.964844 244.039062 74.539062 249.613281 81.417969 249.613281 C 88.292969 249.613281 93.867188 244.039062 93.867188 237.160156 L 93.171875 237.160156 " fill-opacity="1" fill-rule="nonzero"/><g fill="#ffffff" fill-opacity="1"><g transform="translate(75.045829, 169.430272)"><g><path d="M 35.203125 -45.28125 C 39.867188 -43.082031 42.269531 -38.90625 42.40625 -32.75 L 31.90625 -32.75 C 31.8125 -38.71875 28.640625 -41.703125 22.390625 -41.703125 C 15.578125 -41.703125 12.171875 -37.710938 12.171875 -29.734375 C 12.171875 -21.484375 15.578125 -17.359375 22.390625 -17.359375 C 28.734375 -17.359375 31.90625 -20.53125 31.90625 -26.875 L 42.40625 -26.875 C 42.40625 -21.414062 41.0625 -17.660156 38.375 -15.609375 C 35.695312 -13.554688 30.265625 -12.53125 22.078125 -12.53125 C 13.890625 -12.53125 8.789062 -13.320312 6.78125 -14.90625 C 3.46875 -17.425781 1.8125 -22.300781 1.8125 -29.53125 C 1.8125 -37.789062 4.171875 -43.039062 8.890625 -45.28125 C 12.054688 -46.582031 16.4375 -47.234375 22.03125 -47.234375 C 27.632812 -47.234375 32.023438 -46.582031 35.203125 -45.28125 Z M 35.203125 -45.28125 "/></g></g></g><g fill="#ffffff" fill-opacity="1"><g transform="translate(117.547742, 169.430272)"><g><path d="M 1.546875 -13.4375 L 1.546875 -47.03125 L 11.890625 -47.03125 L 11.890625 -13.4375 Z M 1.546875 -13.4375 "/></g></g></g><g fill="#ffffff" fill-opacity="1"><g transform="translate(129.333537, 169.430272)"><g><path d="M 7.625 -37.4375 C 10.238281 -38.375 13.644531 -38.84375 17.84375 -38.84375 C 22.039062 -38.84375 25.445312 -38.46875 28.0625 -37.71875 C 32.207031 -36.039062 34.28125 -33.03125 34.28125 -28.6875 C 34.238281 -21.414062 34.800781 -16.332031 35.96875 -13.4375 L 25.609375 -13.4375 C 25.328125 -14.09375 25.070312 -14.910156 24.84375 -15.890625 C 21.53125 -14.109375 17.914062 -13.265625 14 -13.359375 C 10.3125 -13.359375 7.441406 -13.921875 5.390625 -15.046875 C 3.148438 -16.304688 1.957031 -18.519531 1.8125 -21.6875 C 2 -24.582031 3.285156 -26.660156 5.671875 -27.921875 C 7.910156 -28.847656 12.175781 -29.3125 18.46875 -29.3125 C 19.820312 -29.3125 21.597656 -29.5 23.796875 -29.875 C 23.234375 -32.164062 21.363281 -33.3125 18.1875 -33.3125 C 14.550781 -33.3125 12.6875 -32.285156 12.59375 -30.234375 L 2.09375 -30.234375 C 2.238281 -33.398438 4.082031 -35.800781 7.625 -37.4375 Z M 18.46875 -23.796875 C 14.507812 -23.796875 12.457031 -23.070312 12.3125 -21.625 C 12.457031 -19.800781 13.390625 -18.890625 15.109375 -18.890625 C 18.609375 -18.796875 21.617188 -19.753906 24.140625 -21.765625 C 24.097656 -22.554688 24.050781 -23.375 24 -24.21875 C 22 -23.882812 20.15625 -23.742188 18.46875 -23.796875 Z M 18.46875 -23.796875 "/></g></g></g><g fill="#ffffff" fill-opacity="1"><g transform="translate(165.468323, 169.430272)"><g><path d="M 30.4375 -37.71875 C 33.613281 -36.082031 35.175781 -33.585938 35.125 -30.234375 L 24.625 -30.234375 C 24.53125 -32.847656 22.664062 -34.15625 19.03125 -34.15625 C 15.0625 -34.15625 13.054688 -33.453125 13.015625 -32.046875 C 13.054688 -30.273438 15.0625 -29.390625 19.03125 -29.390625 C 24.675781 -29.671875 28.851562 -29.085938 31.5625 -27.640625 C 34.5 -26.191406 35.96875 -24.023438 35.96875 -21.140625 C 35.96875 -18.523438 35.054688 -16.492188 33.234375 -15.046875 C 31.179688 -13.367188 26.609375 -12.53125 19.515625 -12.53125 C 12.429688 -12.53125 7.957031 -13.179688 6.09375 -14.484375 C 3.425781 -16.347656 2 -19.007812 1.8125 -22.46875 L 12.171875 -22.46875 C 12.171875 -19.519531 14.175781 -18.046875 18.1875 -18.046875 C 22.90625 -17.867188 25.332031 -18.96875 25.46875 -21.34375 C 25.332031 -23.113281 22.90625 -23.929688 18.1875 -23.796875 C 12.457031 -23.742188 8.703125 -24.140625 6.921875 -24.984375 C 4.078125 -26.472656 2.65625 -28.851562 2.65625 -32.125 C 2.65625 -34.59375 4.171875 -36.457031 7.203125 -37.71875 C 10.378906 -39.019531 14.484375 -39.671875 19.515625 -39.671875 C 24.554688 -39.671875 28.195312 -39.019531 30.4375 -37.71875 Z M 30.4375 -37.71875 "/></g></g></g><g fill="#ffffff" fill-opacity="1"><g transform="translate(201.603109, 169.430272)"><g><path d="M 30.4375 -37.71875 C 33.613281 -36.082031 35.175781 -33.585938 35.125 -30.234375 L 24.625 -30.234375 C 24.53125 -32.847656 22.664062 -34.15625 19.03125 -34.15625 C 15.0625 -34.15625 13.054688 -33.453125 13.015625 -32.046875 C 13.054688 -30.273438 15.0625 -29.390625 19.03125 -29.390625 C 24.675781 -29.671875 28.851562 -29.085938 31.5625 -27.640625 C 34.5 -26.191406 35.96875 -24.023438 35.96875 -21.140625 C 35.96875 -18.523438 35.054688 -16.492188 33.234375 -15.046875 C 31.179688 -13.367188 26.609375 -12.53125 19.515625 -12.53125 C 12.429688 -12.53125 7.957031 -13.179688 6.09375 -14.484375 C 3.425781 -16.347656 2 -19.007812 1.8125 -22.46875 L 12.171875 -22.46875 C 12.171875 -19.519531 14.175781 -18.046875 18.1875 -18.046875 C 22.90625 -17.867188 25.332031 -18.96875 25.46875 -21.34375 C 25.332031 -23.113281 22.90625 -23.929688 18.1875 -23.796875 C 12.457031 -23.742188 8.703125 -24.140625 6.921875 -24.984375 C 4.078125 -26.472656 2.65625 -28.851562 2.65625 -32.125 C 2.65625 -34.59375 4.171875 -36.457031 7.203125 -37.71875 C 10.378906 -39.019531 14.484375 -39.671875 19.515625 -39.671875 C 24.554688 -39.671875 28.195312 -39.019531 30.4375 -37.71875 Z M 30.4375 -37.71875 "/></g></g></g><g fill="#ffffff" fill-opacity="1"><g transform="translate(237.737903, 169.430272)"><g/></g></g><g fill="#ffffff" fill-opacity="1"><g transform="translate(252.882176, 169.430272)"><g><path d="M 12.109375 -13.4375 L 1.609375 -13.4375 L 12.59375 -42.75 C 13.664062 -45.601562 15.625 -47.03125 18.46875 -47.03125 L 28.546875 -47.03125 C 31.390625 -47.03125 33.347656 -45.601562 34.421875 -42.75 L 45.421875 -13.4375 L 34.921875 -13.4375 L 30.515625 -24.703125 L 16.515625 -24.703125 Z M 18.328125 -29.59375 L 28.6875 -29.59375 L 23.515625 -43.875 Z M 18.328125 -29.59375 "/></g></g></g></svg>