<svg xmlns="http://www.w3.org/2000/svg" xmlns:xlink="http://www.w3.org/1999/xlink" width="500" zoomAndPan="magnify" viewBox="0 0 375 374.999991" height="500" preserveAspectRatio="xMidYMid meet" version="1.0"><defs><g/><clipPath id="a74b7d2e69"><path d="M 69.320312 111.902344 L 307 111.902344 L 307 273.703125 L 69.320312 273.703125 Z M 69.320312 111.902344 " clip-rule="nonzero"/></clipPath><clipPath id="35bbc36a9f"><path d="M 86.570312 111.902344 L 289.757812 111.902344 C 294.332031 111.902344 298.71875 113.722656 301.953125 116.957031 C 305.1875 120.191406 307.007812 124.578125 307.007812 129.152344 L 307.007812 256.453125 C 307.007812 261.027344 305.1875 265.414062 301.953125 268.652344 C 298.71875 271.886719 294.332031 273.703125 289.757812 273.703125 L 86.570312 273.703125 C 81.996094 273.703125 77.605469 271.886719 74.371094 268.652344 C 71.136719 265.414062 69.320312 261.027344 69.320312 256.453125 L 69.320312 129.152344 C 69.320312 124.578125 71.136719 120.191406 74.371094 116.957031 C 77.605469 113.722656 81.996094 111.902344 86.570312 111.902344 Z M 86.570312 111.902344 " clip-rule="nonzero"/></clipPath><clipPath id="f6d694e59d"><path d="M 82.199219 176.960938 L 223.945312 176.960938 L 223.945312 257.210938 L 82.199219 257.210938 Z M 82.199219 176.960938 " clip-rule="nonzero"/></clipPath><clipPath id="b6c16bb9f5"><path d="M 114.445312 176.960938 L 191.421875 176.960938 C 209.230469 176.960938 223.667969 191.398438 223.667969 209.207031 L 223.667969 224.871094 C 223.667969 242.679688 209.230469 257.117188 191.421875 257.117188 L 114.445312 257.117188 C 96.636719 257.117188 82.199219 242.679688 82.199219 224.871094 L 82.199219 209.207031 C 82.199219 191.398438 96.636719 176.960938 114.445312 176.960938 Z M 114.445312 176.960938 " clip-rule="nonzero"/></clipPath></defs><g clip-path="url(#a74b7d2e69)"><g clip-path="url(#35bbc36a9f)"><path fill="#009d51" d="M 69.320312 111.902344 L 306.960938 111.902344 L 306.960938 273.703125 L 69.320312 273.703125 Z M 69.320312 111.902344 " fill-opacity="1" fill-rule="nonzero"/></g></g><g clip-path="url(#f6d694e59d)"><g clip-path="url(#b6c16bb9f5)"><path stroke-linecap="butt" transform="matrix(0.75, 0, 0, 0.75, 82.199742, 176.96155)" fill="none" stroke-linejoin="miter" d="M 42.994096 -0.000816639 L 145.62952 -0.000816639 C 169.374313 -0.000816639 188.624314 19.249185 188.624314 42.993978 L 188.624314 63.879396 C 188.624314 87.624189 169.374313 106.87419 145.62952 106.87419 L 42.994096 106.87419 C 19.249303 106.87419 -0.00069807 87.624189 -0.00069807 63.879396 L -0.00069807 42.993978 C -0.00069807 19.249185 19.249303 -0.000816639 42.994096 -0.000816639 Z M 42.994096 -0.000816639 " stroke="#000000" stroke-width="40" stroke-opacity="1" stroke-miterlimit="4"/></g></g><path stroke-linecap="butt" transform="matrix(0.75, 0, 0, 0.75, 203.391142, 137.035539)" fill="none" stroke-linejoin="miter" d="M 41.249313 -13.859886 L 67.879523 -13.859886 C 75.926399 -13.859886 82.348274 -12.141136 87.139941 -8.703636 C 91.936816 -5.281761 94.33265 0.285948 94.33265 7.994282 C 94.33265 16.598449 90.759733 22.739074 83.608691 26.416158 C 95.822233 28.5672 101.931609 35.780742 101.931609 48.061993 C 101.931609 55.280743 99.431608 61.07241 94.436816 65.442202 C 89.436816 69.817203 82.567024 71.999494 73.82744 71.999494 L 41.249313 71.999494 Z M 60.817023 19.754699 L 62.369106 19.754699 C 66.738898 19.754699 69.999315 18.994283 72.150357 17.468241 C 74.301398 15.947407 75.374315 13.447407 75.374315 9.973449 C 75.374315 4.145323 71.040982 1.233865 62.369106 1.233865 L 60.817023 1.233865 Z M 60.817023 56.905743 L 66.942023 56.905743 C 76.530565 56.905743 81.322232 53.713035 81.322232 47.327618 C 81.322232 43.515118 80.119107 40.780742 77.712857 39.119284 C 75.32744 37.4422 71.73369 36.603659 66.942023 36.603659 L 60.817023 36.603659 Z M 60.817023 56.905743 " stroke="#262629" stroke-width="17.434908" stroke-opacity="1" stroke-miterlimit="4"/><g fill="#ffffff" fill-opacity="1"><g transform="translate(229.641141, 191.035535)"><g><path d="M 4.6875 -64.40625 L 24.671875 -64.40625 C 30.703125 -64.40625 35.515625 -63.113281 39.109375 -60.53125 C 42.703125 -57.957031 44.5 -53.785156 44.5 -48.015625 C 44.5 -41.554688 41.816406 -36.945312 36.453125 -34.1875 C 45.609375 -32.570312 50.1875 -27.160156 50.1875 -17.953125 C 50.1875 -12.535156 48.3125 -8.1875 44.5625 -4.90625 C 40.820312 -1.632812 35.675781 0 29.125 0 L 4.6875 0 Z M 19.359375 -39.1875 L 20.53125 -39.1875 C 23.8125 -39.1875 26.253906 -39.757812 27.859375 -40.90625 C 29.472656 -42.050781 30.28125 -43.925781 30.28125 -46.53125 C 30.28125 -50.894531 27.03125 -53.078125 20.53125 -53.078125 L 19.359375 -53.078125 Z M 19.359375 -11.3125 L 23.96875 -11.3125 C 31.144531 -11.3125 34.734375 -13.707031 34.734375 -18.5 C 34.734375 -21.363281 33.832031 -23.421875 32.03125 -24.671875 C 30.238281 -25.921875 27.550781 -26.546875 23.96875 -26.546875 L 19.359375 -26.546875 Z M 19.359375 -11.3125 "/></g></g></g></svg>