<svg xmlns="http://www.w3.org/2000/svg" xmlns:xlink="http://www.w3.org/1999/xlink" width="500" zoomAndPan="magnify" viewBox="0 0 375 374.999991" height="500" preserveAspectRatio="xMidYMid meet" version="1.0"><defs><g/><clipPath id="97d132d32f"><path d="M 69.320312 111.902344 L 307 111.902344 L 307 273.703125 L 69.320312 273.703125 Z M 69.320312 111.902344 " clip-rule="nonzero"/></clipPath><clipPath id="502bbd700b"><path d="M 86.570312 111.902344 L 289.757812 111.902344 C 294.332031 111.902344 298.71875 113.722656 301.953125 116.957031 C 305.1875 120.191406 307.007812 124.578125 307.007812 129.152344 L 307.007812 256.453125 C 307.007812 261.027344 305.1875 265.414062 301.953125 268.652344 C 298.71875 271.886719 294.332031 273.703125 289.757812 273.703125 L 86.570312 273.703125 C 81.996094 273.703125 77.605469 271.886719 74.371094 268.652344 C 71.136719 265.414062 69.320312 261.027344 69.320312 256.453125 L 69.320312 129.152344 C 69.320312 124.578125 71.136719 120.191406 74.371094 116.957031 C 77.605469 113.722656 81.996094 111.902344 86.570312 111.902344 Z M 86.570312 111.902344 " clip-rule="nonzero"/></clipPath><clipPath id="f45b47cafd"><path d="M 82.195312 176.960938 L 223.738281 176.960938 L 223.738281 257.128906 L 82.195312 257.128906 Z M 82.195312 176.960938 " clip-rule="nonzero"/></clipPath><clipPath id="7c734fa194"><path d="M 114.445312 176.960938 L 191.429688 176.960938 C 209.242188 176.960938 223.679688 191.402344 223.679688 209.210938 L 223.679688 224.878906 C 223.679688 242.691406 209.242188 257.128906 191.429688 257.128906 L 114.445312 257.128906 C 96.632812 257.128906 82.195312 242.691406 82.195312 224.878906 L 82.195312 209.210938 C 82.195312 191.402344 96.632812 176.960938 114.445312 176.960938 Z M 114.445312 176.960938 " clip-rule="nonzero"/></clipPath><clipPath id="e3ab45e5b9"><path d="M 82.199219 176.960938 L 223.945312 176.960938 L 223.945312 257.210938 L 82.199219 257.210938 Z M 82.199219 176.960938 " clip-rule="nonzero"/></clipPath><clipPath id="4b136036df"><path d="M 114.445312 176.960938 L 191.421875 176.960938 C 209.230469 176.960938 223.667969 191.398438 223.667969 209.207031 L 223.667969 224.871094 C 223.667969 242.679688 209.230469 257.117188 191.421875 257.117188 L 114.445312 257.117188 C 96.636719 257.117188 82.199219 242.679688 82.199219 224.871094 L 82.199219 209.207031 C 82.199219 191.398438 96.636719 176.960938 114.445312 176.960938 Z M 114.445312 176.960938 " clip-rule="nonzero"/></clipPath></defs><g clip-path="url(#97d132d32f)"><g clip-path="url(#502bbd700b)"><path fill="#ff5f00" d="M 69.320312 111.902344 L 306.960938 111.902344 L 306.960938 273.703125 L 69.320312 273.703125 Z M 69.320312 111.902344 " fill-opacity="1" fill-rule="nonzero"/></g></g><g clip-path="url(#f45b47cafd)"><g clip-path="url(#7c734fa194)"><path fill="#ff5f00" d="M 82.195312 176.960938 L 223.738281 176.960938 L 223.738281 257.128906 L 82.195312 257.128906 Z M 82.195312 176.960938 " fill-opacity="1" fill-rule="nonzero"/></g></g><g clip-path="url(#e3ab45e5b9)"><g clip-path="url(#4b136036df)"><path stroke-linecap="butt" transform="matrix(0.75, 0, 0, 0.75, 82.199742, 176.96161)" fill="none" stroke-linejoin="miter" d="M 42.994096 -0.000896639 L 145.62952 -0.000896639 C 169.374313 -0.000896639 188.624314 19.249105 188.624314 42.993898 L 188.624314 63.879316 C 188.624314 87.624109 169.374313 106.87411 145.62952 106.87411 L 42.994096 106.87411 C 19.249303 106.87411 -0.00069807 87.624109 -0.00069807 63.879316 L -0.00069807 42.993898 C -0.00069807 19.249105 19.249303 -0.000896639 42.994096 -0.000896639 Z M 42.994096 -0.000896639 " stroke="#000000" stroke-width="40" stroke-opacity="1" stroke-miterlimit="4"/></g></g><path stroke-linecap="butt" transform="matrix(0.75, 0, 0, 0.75, 203.391142, 137.035772)" fill="none" stroke-linejoin="miter" d="M 37.514938 -13.860197 L 62.395148 -13.860197 C 74.317023 -13.860197 84.514941 -9.78728 92.9889 -1.636238 C 101.45765 6.509596 105.692025 16.723139 105.692025 29.00439 C 105.692025 41.353349 101.473275 51.613766 93.035775 59.775225 C 84.603482 67.926267 74.384732 71.999184 62.395148 71.999184 L 37.514938 71.999184 Z M 57.082647 54.520016 L 60.108689 54.520016 C 67.238898 54.520016 73.072232 52.113766 77.613899 47.301266 C 82.171191 42.47314 84.483691 36.41064 84.551399 29.108556 C 84.551399 21.822097 82.280566 15.759597 77.738899 10.915847 C 73.20244 6.051263 67.322231 3.618971 60.108689 3.618971 L 57.082647 3.618971 Z M 57.082647 54.520016 " stroke="#262629" stroke-width="17.434908" stroke-opacity="1" stroke-miterlimit="4"/><g fill="#ffffff" fill-opacity="1"><g transform="translate(226.84036, 191.035768)"><g><path d="M 4.6875 -64.40625 L 23.34375 -64.40625 C 32.289062 -64.40625 39.9375 -61.347656 46.28125 -55.234375 C 52.632812 -49.117188 55.8125 -41.453125 55.8125 -32.234375 C 55.8125 -22.972656 52.648438 -15.285156 46.328125 -9.171875 C 40.003906 -3.054688 32.34375 0 23.34375 0 L 4.6875 0 Z M 19.359375 -13.109375 L 21.625 -13.109375 C 26.976562 -13.109375 31.359375 -14.914062 34.765625 -18.53125 C 38.179688 -22.15625 39.914062 -26.695312 39.96875 -32.15625 C 39.96875 -37.625 38.257812 -42.175781 34.84375 -45.8125 C 31.4375 -49.457031 27.03125 -51.28125 21.625 -51.28125 L 19.359375 -51.28125 Z M 19.359375 -13.109375 "/></g></g></g></svg>