<svg xmlns="http://www.w3.org/2000/svg" xmlns:xlink="http://www.w3.org/1999/xlink" width="500" zoomAndPan="magnify" viewBox="0 0 375 374.999991" height="500" preserveAspectRatio="xMidYMid meet" version="1.0"><defs><g/><clipPath id="0d7b8732e2"><path d="M 69.320312 111.902344 L 307 111.902344 L 307 273.703125 L 69.320312 273.703125 Z M 69.320312 111.902344 " clip-rule="nonzero"/></clipPath><clipPath id="c949fa1c90"><path d="M 86.570312 111.902344 L 289.757812 111.902344 C 294.332031 111.902344 298.71875 113.722656 301.953125 116.957031 C 305.1875 120.191406 307.007812 124.578125 307.007812 129.152344 L 307.007812 256.453125 C 307.007812 261.027344 305.1875 265.414062 301.953125 268.652344 C 298.71875 271.886719 294.332031 273.703125 289.757812 273.703125 L 86.570312 273.703125 C 81.996094 273.703125 77.605469 271.886719 74.371094 268.652344 C 71.136719 265.414062 69.320312 261.027344 69.320312 256.453125 L 69.320312 129.152344 C 69.320312 124.578125 71.136719 120.191406 74.371094 116.957031 C 77.605469 113.722656 81.996094 111.902344 86.570312 111.902344 Z M 86.570312 111.902344 " clip-rule="nonzero"/></clipPath><clipPath id="05a86778e1"><path d="M 82.195312 176.960938 L 223.738281 176.960938 L 223.738281 257.128906 L 82.195312 257.128906 Z M 82.195312 176.960938 " clip-rule="nonzero"/></clipPath><clipPath id="377559ebf9"><path d="M 114.445312 176.960938 L 191.429688 176.960938 C 209.242188 176.960938 223.679688 191.402344 223.679688 209.210938 L 223.679688 224.878906 C 223.679688 242.691406 209.242188 257.128906 191.429688 257.128906 L 114.445312 257.128906 C 96.632812 257.128906 82.195312 242.691406 82.195312 224.878906 L 82.195312 209.210938 C 82.195312 191.402344 96.632812 176.960938 114.445312 176.960938 Z M 114.445312 176.960938 " clip-rule="nonzero"/></clipPath><clipPath id="ba6f906913"><path d="M 82.199219 176.960938 L 223.945312 176.960938 L 223.945312 257.210938 L 82.199219 257.210938 Z M 82.199219 176.960938 " clip-rule="nonzero"/></clipPath><clipPath id="baa47160cc"><path d="M 114.445312 176.960938 L 191.421875 176.960938 C 209.230469 176.960938 223.667969 191.398438 223.667969 209.207031 L 223.667969 224.871094 C 223.667969 242.679688 209.230469 257.117188 191.421875 257.117188 L 114.445312 257.117188 C 96.636719 257.117188 82.199219 242.679688 82.199219 224.871094 L 82.199219 209.207031 C 82.199219 191.398438 96.636719 176.960938 114.445312 176.960938 Z M 114.445312 176.960938 " clip-rule="nonzero"/></clipPath></defs><g clip-path="url(#0d7b8732e2)"><g clip-path="url(#c949fa1c90)"><path fill="#c8a000" d="M 69.320312 111.902344 L 306.960938 111.902344 L 306.960938 273.703125 L 69.320312 273.703125 Z M 69.320312 111.902344 " fill-opacity="1" fill-rule="nonzero"/></g></g><g clip-path="url(#05a86778e1)"><g clip-path="url(#377559ebf9)"><path fill="#c8a000" d="M 82.195312 176.960938 L 223.738281 176.960938 L 223.738281 257.128906 L 82.195312 257.128906 Z M 82.195312 176.960938 " fill-opacity="1" fill-rule="nonzero"/></g></g><g clip-path="url(#ba6f906913)"><g clip-path="url(#baa47160cc)"><path stroke-linecap="butt" transform="matrix(0.75, 0, 0, 0.75, 82.199742, 176.961668)" fill="none" stroke-linejoin="miter" d="M 42.994096 -0.000973439 L 145.62952 -0.000973439 C 169.374313 -0.000973439 188.624314 19.249028 188.624314 42.993821 L 188.624314 63.879239 C 188.624314 87.624032 169.374313 106.874034 145.62952 106.874034 L 42.994096 106.874034 C 19.249303 106.874034 -0.00069807 87.624032 -0.00069807 63.879239 L -0.00069807 42.993821 C -0.00069807 19.249028 19.249303 -0.000973439 42.994096 -0.000973439 Z M 42.994096 -0.000973439 " stroke="#000000" stroke-width="40" stroke-opacity="1" stroke-miterlimit="4"/></g></g><path stroke-linecap="butt" transform="matrix(0.75, 0, 0, 0.75, 203.391142, 137.035772)" fill="none" stroke-linejoin="miter" d="M 82.421191 54.316891 C 85.405566 54.316891 88.301399 53.863766 91.1139 52.967933 C 93.9264 52.051266 95.994108 51.181474 97.311817 50.348141 L 99.27015 49.004391 L 107.603484 65.645017 C 107.332651 65.848142 106.952442 66.129392 106.462859 66.483559 C 105.968067 66.827309 104.843067 67.467934 103.08265 68.41585 C 101.317025 69.348142 99.431608 70.160642 97.415983 70.858559 C 95.400358 71.551267 92.754525 72.171059 89.488899 72.712726 C 86.233691 73.270017 82.869107 73.551267 79.400357 73.551267 C 71.42119 73.551267 63.858689 71.592934 56.707647 67.681475 C 49.556605 63.764808 43.801396 58.379391 39.426396 51.520016 C 35.056604 44.639807 32.874312 37.212723 32.874312 29.233556 C 32.874312 23.186681 34.150354 17.395014 36.707646 11.853347 C 39.285771 6.296055 42.707646 1.546054 46.973272 -2.401863 C 51.244105 -6.365404 56.223272 -9.521655 61.915981 -11.88103 C 67.60869 -14.250822 73.436815 -15.438322 79.400357 -15.438322 C 84.957649 -15.438322 90.072233 -14.776863 94.744108 -13.453947 C 99.436817 -12.13103 102.749317 -10.813321 104.681609 -9.490405 L 107.603484 -7.50603 L 99.27015 9.134597 C 98.796192 8.712722 98.067025 8.212721 97.08265 7.634596 C 96.119108 7.040846 94.181608 6.264805 91.264941 5.296055 C 88.353483 4.316888 85.405566 3.822096 82.421191 3.822096 C 77.697232 3.822096 73.462857 4.587721 69.718065 6.113763 C 65.973273 7.634596 63.009731 9.650222 60.822231 12.160638 C 58.639939 14.650222 56.968064 17.332514 55.817022 20.212722 C 54.681605 23.092931 54.113897 26.025223 54.113897 29.00439 C 54.113897 35.530432 56.556606 41.37939 61.431606 46.566891 C 66.32744 51.733558 73.32744 54.316891 82.421191 54.316891 Z M 82.421191 54.316891 " stroke="#262629" stroke-width="17.434908" stroke-opacity="1" stroke-miterlimit="4"/><g fill="#ffffff" fill-opacity="1"><g transform="translate(226.254422, 191.035768)"><g><path d="M 38.953125 -13.265625 C 41.191406 -13.265625 43.363281 -13.601562 45.46875 -14.28125 C 47.582031 -14.957031 49.128906 -15.609375 50.109375 -16.234375 L 51.59375 -17.25 L 57.84375 -4.765625 C 57.632812 -4.609375 57.347656 -4.398438 56.984375 -4.140625 C 56.617188 -3.878906 55.769531 -3.394531 54.4375 -2.6875 C 53.113281 -1.988281 51.695312 -1.378906 50.1875 -0.859375 C 48.6875 -0.335938 46.710938 0.128906 44.265625 0.546875 C 41.816406 0.960938 39.289062 1.171875 36.6875 1.171875 C 30.707031 1.171875 25.035156 -0.296875 19.671875 -3.234375 C 14.304688 -6.179688 9.984375 -10.226562 6.703125 -15.375 C 3.429688 -20.53125 1.796875 -26.097656 1.796875 -32.078125 C 1.796875 -36.609375 2.757812 -40.953125 4.6875 -45.109375 C 6.613281 -49.273438 9.175781 -52.84375 12.375 -55.8125 C 15.570312 -58.78125 19.300781 -61.148438 23.5625 -62.921875 C 27.832031 -64.691406 32.207031 -65.578125 36.6875 -65.578125 C 40.851562 -65.578125 44.691406 -65.082031 48.203125 -64.09375 C 51.710938 -63.101562 54.195312 -62.113281 55.65625 -61.125 L 57.84375 -59.640625 L 51.59375 -47.15625 C 51.226562 -47.46875 50.679688 -47.84375 49.953125 -48.28125 C 49.222656 -48.71875 47.765625 -49.300781 45.578125 -50.03125 C 43.398438 -50.757812 41.191406 -51.125 38.953125 -51.125 C 35.410156 -51.125 32.234375 -50.550781 29.421875 -49.40625 C 26.617188 -48.269531 24.394531 -46.765625 22.75 -44.890625 C 21.113281 -43.015625 19.863281 -40.992188 19 -38.828125 C 18.144531 -36.671875 17.71875 -34.472656 17.71875 -32.234375 C 17.71875 -27.347656 19.550781 -22.960938 23.21875 -19.078125 C 26.894531 -15.203125 32.140625 -13.265625 38.953125 -13.265625 Z M 38.953125 -13.265625 "/></g></g></g></svg>