<svg xmlns="http://www.w3.org/2000/svg" xmlns:xlink="http://www.w3.org/1999/xlink" width="500" zoomAndPan="magnify" viewBox="0 0 375 374.999991" height="500" preserveAspectRatio="xMidYMid meet" version="1.0"><defs><g/><clipPath id="53ad64a9bd"><path d="M 69.320312 111.902344 L 307 111.902344 L 307 273.703125 L 69.320312 273.703125 Z M 69.320312 111.902344 " clip-rule="nonzero"/></clipPath><clipPath id="78bf006648"><path d="M 86.570312 111.902344 L 289.757812 111.902344 C 294.332031 111.902344 298.71875 113.722656 301.953125 116.957031 C 305.1875 120.191406 307.007812 124.578125 307.007812 129.152344 L 307.007812 256.453125 C 307.007812 261.027344 305.1875 265.414062 301.953125 268.652344 C 298.71875 271.886719 294.332031 273.703125 289.757812 273.703125 L 86.570312 273.703125 C 81.996094 273.703125 77.605469 271.886719 74.371094 268.652344 C 71.136719 265.414062 69.320312 261.027344 69.320312 256.453125 L 69.320312 129.152344 C 69.320312 124.578125 71.136719 120.191406 74.371094 116.957031 C 77.605469 113.722656 81.996094 111.902344 86.570312 111.902344 Z M 86.570312 111.902344 " clip-rule="nonzero"/></clipPath><clipPath id="c8ccaee9e6"><path d="M 82.195312 176.960938 L 223.738281 176.960938 L 223.738281 257.128906 L 82.195312 257.128906 Z M 82.195312 176.960938 " clip-rule="nonzero"/></clipPath><clipPath id="827b2b1380"><path d="M 114.445312 176.960938 L 191.429688 176.960938 C 209.242188 176.960938 223.679688 191.402344 223.679688 209.210938 L 223.679688 224.878906 C 223.679688 242.691406 209.242188 257.128906 191.429688 257.128906 L 114.445312 257.128906 C 96.632812 257.128906 82.195312 242.691406 82.195312 224.878906 L 82.195312 209.210938 C 82.195312 191.402344 96.632812 176.960938 114.445312 176.960938 Z M 114.445312 176.960938 " clip-rule="nonzero"/></clipPath><clipPath id="8bd0099e2a"><path d="M 82.199219 176.960938 L 223.945312 176.960938 L 223.945312 257.210938 L 82.199219 257.210938 Z M 82.199219 176.960938 " clip-rule="nonzero"/></clipPath><clipPath id="6de0674f95"><path d="M 114.445312 176.960938 L 191.421875 176.960938 C 209.230469 176.960938 223.667969 191.398438 223.667969 209.207031 L 223.667969 224.871094 C 223.667969 242.679688 209.230469 257.117188 191.421875 257.117188 L 114.445312 257.117188 C 96.636719 257.117188 82.199219 242.679688 82.199219 224.871094 L 82.199219 209.207031 C 82.199219 191.398438 96.636719 176.960938 114.445312 176.960938 Z M 114.445312 176.960938 " clip-rule="nonzero"/></clipPath></defs><g clip-path="url(#53ad64a9bd)"><g clip-path="url(#78bf006648)"><path fill="#bb000c" d="M 69.320312 111.902344 L 306.960938 111.902344 L 306.960938 273.703125 L 69.320312 273.703125 Z M 69.320312 111.902344 " fill-opacity="1" fill-rule="nonzero"/></g></g><g clip-path="url(#c8ccaee9e6)"><g clip-path="url(#827b2b1380)"><path fill="#bb000c" d="M 82.195312 176.960938 L 223.738281 176.960938 L 223.738281 257.128906 L 82.195312 257.128906 Z M 82.195312 176.960938 " fill-opacity="1" fill-rule="nonzero"/></g></g><g clip-path="url(#8bd0099e2a)"><g clip-path="url(#6de0674f95)"><path stroke-linecap="butt" transform="matrix(0.75, 0, 0, 0.75, 82.199742, 176.96161)" fill="none" stroke-linejoin="miter" d="M 42.994096 -0.000896639 L 145.62952 -0.000896639 C 169.374313 -0.000896639 188.624314 19.249105 188.624314 42.993898 L 188.624314 63.879316 C 188.624314 87.624109 169.374313 106.87411 145.62952 106.87411 L 42.994096 106.87411 C 19.249303 106.87411 -0.00069807 87.624109 -0.00069807 63.879316 L -0.00069807 42.993898 C -0.00069807 19.249105 19.249303 -0.000896639 42.994096 -0.000896639 Z M 42.994096 -0.000896639 " stroke="#000000" stroke-width="40" stroke-opacity="1" stroke-miterlimit="4"/></g></g><path stroke-linecap="butt" transform="matrix(0.75, 0, 0, 0.75, 203.391142, 137.035714)" fill="none" stroke-linejoin="miter" d="M 38.655563 -13.86012 L 69.353481 -13.86012 C 77.619107 -13.86012 84.353482 -11.656995 89.551399 -7.255953 C 94.754525 -2.849702 97.353483 3.441965 97.353483 11.624257 C 97.353483 17.941966 95.77015 23.238841 92.603483 27.504466 C 89.452441 31.7753 85.176399 34.7753 79.770149 36.504467 L 109.322234 71.999261 L 84.447232 71.999261 L 58.223272 38.077384 L 58.223272 71.999261 L 38.655563 71.999261 Z M 58.223272 24.228424 L 60.509731 24.228424 C 62.306606 24.228424 63.832648 24.197174 65.082648 24.129466 C 66.337856 24.061758 67.759731 23.822174 69.353481 23.415924 C 70.947232 22.994049 72.223273 22.400299 73.192023 21.634674 C 74.17119 20.858632 75.009732 19.738841 75.707649 18.280507 C 76.400357 16.827382 76.749315 15.061757 76.749315 12.999257 C 76.749315 10.915923 76.400357 9.14509 75.707649 7.686757 C 75.009732 6.228423 74.17119 5.119048 73.192023 4.358631 C 72.223273 3.598215 70.947232 3.004465 69.353481 2.577381 C 67.759731 2.155506 66.337856 1.910715 65.082648 1.843006 C 63.832648 1.775298 62.306606 1.73884 60.509731 1.73884 L 58.223272 1.73884 Z M 58.223272 24.228424 " stroke="#262629" stroke-width="17.434908" stroke-opacity="1" stroke-miterlimit="4"/><g fill="#ffffff" fill-opacity="1"><g transform="translate(227.695828, 191.035711)"><g><path d="M 4.6875 -64.40625 L 27.71875 -64.40625 C 33.90625 -64.40625 38.953125 -62.75 42.859375 -59.4375 C 46.765625 -56.132812 48.71875 -51.414062 48.71875 -45.28125 C 48.71875 -40.539062 47.53125 -36.570312 45.15625 -33.375 C 42.789062 -30.175781 39.578125 -27.925781 35.515625 -26.625 L 57.6875 0 L 39.03125 0 L 19.359375 -25.453125 L 19.359375 0 L 4.6875 0 Z M 19.359375 -35.828125 L 21.078125 -35.828125 C 22.429688 -35.828125 23.578125 -35.851562 24.515625 -35.90625 C 25.453125 -35.957031 26.515625 -36.140625 27.703125 -36.453125 C 28.898438 -36.765625 29.863281 -37.207031 30.59375 -37.78125 C 31.320312 -38.351562 31.945312 -39.1875 32.46875 -40.28125 C 32.988281 -41.375 33.25 -42.703125 33.25 -44.265625 C 33.25 -45.828125 32.988281 -47.148438 32.46875 -48.234375 C 31.945312 -49.328125 31.320312 -50.160156 30.59375 -50.734375 C 29.863281 -51.304688 28.898438 -51.75 27.703125 -52.0625 C 26.515625 -52.375 25.453125 -52.554688 24.515625 -52.609375 C 23.578125 -52.660156 22.429688 -52.6875 21.078125 -52.6875 L 19.359375 -52.6875 Z M 19.359375 -35.828125 "/></g></g></g></svg>