<svg xmlns="http://www.w3.org/2000/svg" xmlns:xlink="http://www.w3.org/1999/xlink" width="500" zoomAndPan="magnify" viewBox="0 0 375 374.999991" height="500" preserveAspectRatio="xMidYMid meet" version="1.0"><defs><g/><clipPath id="bab5bad74c"><path d="M 69.320312 111.902344 L 307 111.902344 L 307 273.703125 L 69.320312 273.703125 Z M 69.320312 111.902344 " clip-rule="nonzero"/></clipPath><clipPath id="e740582e50"><path d="M 86.570312 111.902344 L 289.757812 111.902344 C 294.332031 111.902344 298.71875 113.722656 301.953125 116.957031 C 305.1875 120.191406 307.007812 124.578125 307.007812 129.152344 L 307.007812 256.453125 C 307.007812 261.027344 305.1875 265.414062 301.953125 268.652344 C 298.71875 271.886719 294.332031 273.703125 289.757812 273.703125 L 86.570312 273.703125 C 81.996094 273.703125 77.605469 271.886719 74.371094 268.652344 C 71.136719 265.414062 69.320312 261.027344 69.320312 256.453125 L 69.320312 129.152344 C 69.320312 124.578125 71.136719 120.191406 74.371094 116.957031 C 77.605469 113.722656 81.996094 111.902344 86.570312 111.902344 Z M 86.570312 111.902344 " clip-rule="nonzero"/></clipPath><clipPath id="bca6045749"><path d="M 82.199219 176.960938 L 223.945312 176.960938 L 223.945312 257.210938 L 82.199219 257.210938 Z M 82.199219 176.960938 " clip-rule="nonzero"/></clipPath><clipPath id="2d1e3fc8e0"><path d="M 114.445312 176.960938 L 191.421875 176.960938 C 209.230469 176.960938 223.667969 191.398438 223.667969 209.207031 L 223.667969 224.871094 C 223.667969 242.679688 209.230469 257.117188 191.421875 257.117188 L 114.445312 257.117188 C 96.636719 257.117188 82.199219 242.679688 82.199219 224.871094 L 82.199219 209.207031 C 82.199219 191.398438 96.636719 176.960938 114.445312 176.960938 Z M 114.445312 176.960938 " clip-rule="nonzero"/></clipPath></defs><g clip-path="url(#bab5bad74c)"><g clip-path="url(#e740582e50)"><path fill="#2f53f8" d="M 69.320312 111.902344 L 306.960938 111.902344 L 306.960938 273.703125 L 69.320312 273.703125 Z M 69.320312 111.902344 " fill-opacity="1" fill-rule="nonzero"/></g></g><g clip-path="url(#bca6045749)"><g clip-path="url(#2d1e3fc8e0)"><path stroke-linecap="butt" transform="matrix(0.75, 0, 0, 0.75, 82.199742, 176.96161)" fill="none" stroke-linejoin="miter" d="M 42.994096 -0.000896639 L 145.62952 -0.000896639 C 169.374313 -0.000896639 188.624314 19.249105 188.624314 42.993898 L 188.624314 63.879316 C 188.624314 87.624109 169.374313 106.87411 145.62952 106.87411 L 42.994096 106.87411 C 19.249303 106.87411 -0.00069807 87.624109 -0.00069807 63.879316 L -0.00069807 42.993898 C -0.00069807 19.249105 19.249303 -0.000896639 42.994096 -0.000896639 Z M 42.994096 -0.000896639 " stroke="#000000" stroke-width="40" stroke-opacity="1" stroke-miterlimit="4"/></g></g><path stroke-linecap="butt" transform="matrix(0.645747, 0, 0, 0.645747, 217.794029, 135.190918)" fill="none" stroke-linejoin="miter" d="M 78.71658 -13.857958 L 113.372439 71.998317 L 92.357523 71.998317 L 86.005865 54.824643 L 53.328094 54.824643 L 46.976435 71.998317 L 25.937322 71.998317 L 60.59923 -13.857958 Z M 79.351746 37.644919 L 69.769815 12.667777 L 69.564143 12.667777 L 59.988261 37.644919 Z M 79.351746 37.644919 " stroke="#262629" stroke-width="17.434908" stroke-opacity="1" stroke-miterlimit="4"/><g fill="#ffffff" fill-opacity="1"><g transform="translate(236.429875, 181.68468)"><g><path d="M 32.1875 -55.4375 L 54.5625 0 L 41 0 L 36.890625 -11.09375 L 15.796875 -11.09375 L 11.6875 0 L -1.875 0 L 20.5 -55.4375 Z M 32.59375 -22.171875 L 26.40625 -38.3125 L 26.28125 -38.3125 L 20.09375 -22.171875 Z M 32.59375 -22.171875 "/></g></g></g></svg>