<svg xmlns="http://www.w3.org/2000/svg" xmlns:xlink="http://www.w3.org/1999/xlink" width="500" zoomAndPan="magnify" viewBox="0 0 375 374.999991" height="500" preserveAspectRatio="xMidYMid meet" version="1.0"><defs><g/><clipPath id="658f9cc804"><path d="M 69.320312 111.902344 L 307 111.902344 L 307 273.703125 L 69.320312 273.703125 Z M 69.320312 111.902344 " clip-rule="nonzero"/></clipPath><clipPath id="0debf21025"><path d="M 86.570312 111.902344 L 289.757812 111.902344 C 294.332031 111.902344 298.71875 113.722656 301.953125 116.957031 C 305.1875 120.191406 307.007812 124.578125 307.007812 129.152344 L 307.007812 256.453125 C 307.007812 261.027344 305.1875 265.414062 301.953125 268.652344 C 298.71875 271.886719 294.332031 273.703125 289.757812 273.703125 L 86.570312 273.703125 C 81.996094 273.703125 77.605469 271.886719 74.371094 268.652344 C 71.136719 265.414062 69.320312 261.027344 69.320312 256.453125 L 69.320312 129.152344 C 69.320312 124.578125 71.136719 120.191406 74.371094 116.957031 C 77.605469 113.722656 81.996094 111.902344 86.570312 111.902344 Z M 86.570312 111.902344 " clip-rule="nonzero"/></clipPath><clipPath id="d5a262af30"><path d="M 82.199219 176.960938 L 223.945312 176.960938 L 223.945312 257.210938 L 82.199219 257.210938 Z M 82.199219 176.960938 " clip-rule="nonzero"/></clipPath><clipPath id="3356b188bd"><path d="M 114.445312 176.960938 L 191.421875 176.960938 C 209.230469 176.960938 223.667969 191.398438 223.667969 209.207031 L 223.667969 224.871094 C 223.667969 242.679688 209.230469 257.117188 191.421875 257.117188 L 114.445312 257.117188 C 96.636719 257.117188 82.199219 242.679688 82.199219 224.871094 L 82.199219 209.207031 C 82.199219 191.398438 96.636719 176.960938 114.445312 176.960938 Z M 114.445312 176.960938 " clip-rule="nonzero"/></clipPath></defs><g clip-path="url(#658f9cc804)"><g clip-path="url(#0debf21025)"><path fill="#929292" d="M 69.320312 111.902344 L 306.960938 111.902344 L 306.960938 273.703125 L 69.320312 273.703125 Z M 69.320312 111.902344 " fill-opacity="1" fill-rule="nonzero"/></g></g><g clip-path="url(#d5a262af30)"><g clip-path="url(#3356b188bd)"><path stroke-linecap="butt" transform="matrix(0.75, 0, 0, 0.75, 82.199742, 176.96161)" fill="none" stroke-linejoin="miter" d="M 42.994096 -0.000896639 L 145.62952 -0.000896639 C 169.374313 -0.000896639 188.624314 19.249105 188.624314 42.993898 L 188.624314 63.879316 C 188.624314 87.624109 169.374313 106.87411 145.62952 106.87411 L 42.994096 106.87411 C 19.249303 106.87411 -0.00069807 87.624109 -0.00069807 63.879316 L -0.00069807 42.993898 C -0.00069807 19.249105 19.249303 -0.000896639 42.994096 -0.000896639 Z M 42.994096 -0.000896639 " stroke="#000000" stroke-width="40" stroke-opacity="1" stroke-miterlimit="4"/></g></g><path stroke-linecap="butt" transform="matrix(0.75, 0, 0, 0.75, 203.391142, 137.035714)" fill="none" stroke-linejoin="miter" d="M 41.249313 -13.86012 L 72.582648 -13.86012 C 81.322232 -13.86012 88.395149 -11.61012 93.8014 -7.099703 C 99.218067 -2.594494 101.931609 3.95759 101.931609 12.566965 C 101.931609 21.171132 99.186817 27.921133 93.697233 32.816967 C 88.223274 37.7128 81.186816 40.160717 72.582648 40.160717 L 60.817023 40.160717 L 60.817023 71.999261 L 41.249313 71.999261 Z M 60.817023 24.535716 L 66.332648 24.535716 C 70.70244 24.535716 74.290982 23.655508 77.103482 21.889883 C 79.915982 20.113841 81.322232 17.218007 81.322232 13.202382 C 81.322232 9.103423 79.915982 6.171131 77.103482 4.410715 C 74.290982 2.629465 70.70244 1.73884 66.332648 1.73884 L 60.817023 1.73884 Z M 60.817023 24.535716 " stroke="#262629" stroke-width="17.434908" stroke-opacity="1" stroke-miterlimit="4"/><g fill="#ffffff" fill-opacity="1"><g transform="translate(229.641141, 191.035711)"><g><path d="M 4.6875 -64.40625 L 28.1875 -64.40625 C 34.738281 -64.40625 40.039062 -62.710938 44.09375 -59.328125 C 48.15625 -55.941406 50.1875 -51.019531 50.1875 -44.5625 C 50.1875 -38.113281 48.128906 -33.054688 44.015625 -29.390625 C 39.910156 -25.722656 34.632812 -23.890625 28.1875 -23.890625 L 19.359375 -23.890625 L 19.359375 0 L 4.6875 0 Z M 19.359375 -35.59375 L 23.5 -35.59375 C 26.78125 -35.59375 29.472656 -36.253906 31.578125 -37.578125 C 33.679688 -38.910156 34.734375 -41.085938 34.734375 -44.109375 C 34.734375 -47.179688 33.679688 -49.378906 31.578125 -50.703125 C 29.472656 -52.023438 26.78125 -52.6875 23.5 -52.6875 L 19.359375 -52.6875 Z M 19.359375 -35.59375 "/></g></g></g></svg>