<svg xmlns="http://www.w3.org/2000/svg" xmlns:xlink="http://www.w3.org/1999/xlink" width="500" zoomAndPan="magnify" viewBox="0 0 375 374.999991" height="500" preserveAspectRatio="xMidYMid meet" version="1.0"><defs><g/><clipPath id="9feb654990"><path d="M 37.5 91.351562 L 337.957031 91.351562 L 337.957031 283.648438 L 37.5 283.648438 Z M 37.5 91.351562 " clip-rule="nonzero"/></clipPath><clipPath id="8665768015"><path d="M 54.75 91.351562 L 320.25 91.351562 C 324.824219 91.351562 329.210938 93.171875 332.449219 96.40625 C 335.683594 99.640625 337.5 104.027344 337.5 108.601562 L 337.5 266.398438 C 337.5 270.972656 335.683594 275.359375 332.449219 278.59375 C 329.210938 281.828125 324.824219 283.648438 320.25 283.648438 L 54.75 283.648438 C 50.175781 283.648438 45.789062 281.828125 42.550781 278.59375 C 39.316406 275.359375 37.5 270.972656 37.5 266.398438 L 37.5 108.601562 C 37.5 104.027344 39.316406 99.640625 42.550781 96.40625 C 45.789062 93.171875 50.175781 91.351562 54.75 91.351562 Z M 54.75 91.351562 " clip-rule="nonzero"/></clipPath><clipPath id="729db2abbf"><path d="M 56.164062 190.207031 L 318.664062 190.207031 L 318.664062 268 L 56.164062 268 Z M 56.164062 190.207031 " clip-rule="nonzero"/></clipPath></defs><g clip-path="url(#9feb654990)"><g clip-path="url(#8665768015)"><path fill="#5271ff" d="M 37.5 91.351562 L 337.207031 91.351562 L 337.207031 283.648438 L 37.5 283.648438 Z M 37.5 91.351562 " fill-opacity="1" fill-rule="nonzero"/></g></g><g fill="#ffffff" fill-opacity="1"><g transform="translate(75.045829, 169.430279)"><g><path d="M 35.203125 -45.28125 C 39.867188 -43.082031 42.269531 -38.90625 42.40625 -32.75 L 31.90625 -32.75 C 31.8125 -38.71875 28.640625 -41.703125 22.390625 -41.703125 C 15.578125 -41.703125 12.171875 -37.710938 12.171875 -29.734375 C 12.171875 -21.484375 15.578125 -17.359375 22.390625 -17.359375 C 28.734375 -17.359375 31.90625 -20.53125 31.90625 -26.875 L 42.40625 -26.875 C 42.40625 -21.414062 41.0625 -17.660156 38.375 -15.609375 C 35.695312 -13.554688 30.265625 -12.53125 22.078125 -12.53125 C 13.890625 -12.53125 8.789062 -13.320312 6.78125 -14.90625 C 3.46875 -17.425781 1.8125 -22.300781 1.8125 -29.53125 C 1.8125 -37.789062 4.171875 -43.039062 8.890625 -45.28125 C 12.054688 -46.582031 16.4375 -47.234375 22.03125 -47.234375 C 27.632812 -47.234375 32.023438 -46.582031 35.203125 -45.28125 Z M 35.203125 -45.28125 "/></g></g></g><g fill="#ffffff" fill-opacity="1"><g transform="translate(117.547742, 169.430279)"><g><path d="M 1.546875 -13.4375 L 1.546875 -47.03125 L 11.890625 -47.03125 L 11.890625 -13.4375 Z M 1.546875 -13.4375 "/></g></g></g><g fill="#ffffff" fill-opacity="1"><g transform="translate(129.333537, 169.430279)"><g><path d="M 7.625 -37.4375 C 10.238281 -38.375 13.644531 -38.84375 17.84375 -38.84375 C 22.039062 -38.84375 25.445312 -38.46875 28.0625 -37.71875 C 32.207031 -36.039062 34.28125 -33.03125 34.28125 -28.6875 C 34.238281 -21.414062 34.800781 -16.332031 35.96875 -13.4375 L 25.609375 -13.4375 C 25.328125 -14.09375 25.070312 -14.910156 24.84375 -15.890625 C 21.53125 -14.109375 17.914062 -13.265625 14 -13.359375 C 10.3125 -13.359375 7.441406 -13.921875 5.390625 -15.046875 C 3.148438 -16.304688 1.957031 -18.519531 1.8125 -21.6875 C 2 -24.582031 3.285156 -26.660156 5.671875 -27.921875 C 7.910156 -28.847656 12.175781 -29.3125 18.46875 -29.3125 C 19.820312 -29.3125 21.597656 -29.5 23.796875 -29.875 C 23.234375 -32.164062 21.363281 -33.3125 18.1875 -33.3125 C 14.550781 -33.3125 12.6875 -32.285156 12.59375 -30.234375 L 2.09375 -30.234375 C 2.238281 -33.398438 4.082031 -35.800781 7.625 -37.4375 Z M 18.46875 -23.796875 C 14.507812 -23.796875 12.457031 -23.070312 12.3125 -21.625 C 12.457031 -19.800781 13.390625 -18.890625 15.109375 -18.890625 C 18.609375 -18.796875 21.617188 -19.753906 24.140625 -21.765625 C 24.097656 -22.554688 24.050781 -23.375 24 -24.21875 C 22 -23.882812 20.15625 -23.742188 18.46875 -23.796875 Z M 18.46875 -23.796875 "/></g></g></g><g fill="#ffffff" fill-opacity="1"><g transform="translate(165.468323, 169.430279)"><g><path d="M 30.4375 -37.71875 C 33.613281 -36.082031 35.175781 -33.585938 35.125 -30.234375 L 24.625 -30.234375 C 24.53125 -32.847656 22.664062 -34.15625 19.03125 -34.15625 C 15.0625 -34.15625 13.054688 -33.453125 13.015625 -32.046875 C 13.054688 -30.273438 15.0625 -29.390625 19.03125 -29.390625 C 24.675781 -29.671875 28.851562 -29.085938 31.5625 -27.640625 C 34.5 -26.191406 35.96875 -24.023438 35.96875 -21.140625 C 35.96875 -18.523438 35.054688 -16.492188 33.234375 -15.046875 C 31.179688 -13.367188 26.609375 -12.53125 19.515625 -12.53125 C 12.429688 -12.53125 7.957031 -13.179688 6.09375 -14.484375 C 3.425781 -16.347656 2 -19.007812 1.8125 -22.46875 L 12.171875 -22.46875 C 12.171875 -19.519531 14.175781 -18.046875 18.1875 -18.046875 C 22.90625 -17.867188 25.332031 -18.96875 25.46875 -21.34375 C 25.332031 -23.113281 22.90625 -23.929688 18.1875 -23.796875 C 12.457031 -23.742188 8.703125 -24.140625 6.921875 -24.984375 C 4.078125 -26.472656 2.65625 -28.851562 2.65625 -32.125 C 2.65625 -34.59375 4.171875 -36.457031 7.203125 -37.71875 C 10.378906 -39.019531 14.484375 -39.671875 19.515625 -39.671875 C 24.554688 -39.671875 28.195312 -39.019531 30.4375 -37.71875 Z M 30.4375 -37.71875 "/></g></g></g><g fill="#ffffff" fill-opacity="1"><g transform="translate(201.603109, 169.430279)"><g><path d="M 30.4375 -37.71875 C 33.613281 -36.082031 35.175781 -33.585938 35.125 -30.234375 L 24.625 -30.234375 C 24.53125 -32.847656 22.664062 -34.15625 19.03125 -34.15625 C 15.0625 -34.15625 13.054688 -33.453125 13.015625 -32.046875 C 13.054688 -30.273438 15.0625 -29.390625 19.03125 -29.390625 C 24.675781 -29.671875 28.851562 -29.085938 31.5625 -27.640625 C 34.5 -26.191406 35.96875 -24.023438 35.96875 -21.140625 C 35.96875 -18.523438 35.054688 -16.492188 33.234375 -15.046875 C 31.179688 -13.367188 26.609375 -12.53125 19.515625 -12.53125 C 12.429688 -12.53125 7.957031 -13.179688 6.09375 -14.484375 C 3.425781 -16.347656 2 -19.007812 1.8125 -22.46875 L 12.171875 -22.46875 C 12.171875 -19.519531 14.175781 -18.046875 18.1875 -18.046875 C 22.90625 -17.867188 25.332031 -18.96875 25.46875 -21.34375 C 25.332031 -23.113281 22.90625 -23.929688 18.1875 -23.796875 C 12.457031 -23.742188 8.703125 -24.140625 6.921875 -24.984375 C 4.078125 -26.472656 2.65625 -28.851562 2.65625 -32.125 C 2.65625 -34.59375 4.171875 -36.457031 7.203125 -37.71875 C 10.378906 -39.019531 14.484375 -39.671875 19.515625 -39.671875 C 24.554688 -39.671875 28.195312 -39.019531 30.4375 -37.71875 Z M 30.4375 -37.71875 "/></g></g></g><g fill="#ffffff" fill-opacity="1"><g transform="translate(237.737903, 169.430279)"><g/></g></g><g fill="#ffffff" fill-opacity="1"><g transform="translate(252.882176, 169.430279)"><g><path d="M 12.109375 -13.4375 L 1.609375 -13.4375 L 12.59375 -42.75 C 13.664062 -45.601562 15.625 -47.03125 18.46875 -47.03125 L 28.546875 -47.03125 C 31.390625 -47.03125 33.347656 -45.601562 34.421875 -42.75 L 45.421875 -13.4375 L 34.921875 -13.4375 L 30.515625 -24.703125 L 16.515625 -24.703125 Z M 18.328125 -29.59375 L 28.6875 -29.59375 L 23.515625 -43.875 Z M 18.328125 -29.59375 "/></g></g></g><g clip-path="url(#729db2abbf)"><path fill="#ffffff" d="M 212.628906 211.902344 C 212.628906 211.902344 172.019531 197.015625 164.4375 196.84375 C 156.898438 196.667969 125.367188 201.992188 125.367188 201.992188 L 130.253906 209.4375 C 130.253906 209.4375 192.625 215.144531 212.628906 211.902344 Z M 267.675781 228.171875 C 257.953125 228.171875 250.113281 236.089844 250.113281 245.828125 C 250.113281 255.558594 257.953125 263.480469 267.675781 263.480469 C 277.359375 263.480469 285.199219 255.558594 285.199219 245.828125 C 285.199219 236.089844 277.359375 228.171875 267.675781 228.171875 Z M 267.675781 223.671875 C 255.511719 223.671875 245.65625 233.625 245.65625 245.828125 C 245.65625 258.070312 255.511719 267.980469 267.675781 267.980469 C 279.800781 267.980469 289.652344 258.070312 289.652344 245.828125 C 289.652344 233.625 279.800781 223.671875 267.675781 223.671875 Z M 97.4375 228.171875 C 87.757812 228.171875 79.917969 236.089844 79.917969 245.828125 C 79.917969 255.558594 87.757812 263.480469 97.4375 263.480469 C 107.160156 263.480469 115.003906 255.558594 115.003906 245.828125 C 115.003906 236.089844 107.160156 228.171875 97.4375 228.171875 Z M 97.4375 223.671875 C 85.316406 223.671875 75.421875 233.625 75.421875 245.828125 C 75.421875 258.070312 85.316406 267.980469 97.4375 267.980469 C 109.605469 267.980469 119.457031 258.070312 119.457031 245.828125 C 119.457031 233.625 109.605469 223.671875 97.4375 223.671875 Z M 318.613281 237.863281 C 318.613281 237.863281 287.980469 214.195312 278.558594 211.554688 C 269.089844 208.871094 227.921875 212.507812 227.921875 212.507812 C 227.921875 212.507812 187.871094 191.695312 177.117188 190.917969 C 166.367188 190.179688 137.0625 192.257812 127.253906 194.9375 C 117.402344 197.621094 59.226562 213.070312 59.226562 213.070312 C 59.226562 213.070312 56.398438 222.804688 56.613281 226.398438 C 56.785156 230.03125 63.210938 252.359375 63.210938 252.359375 L 74.519531 253.917969 C 73.664062 251.40625 73.148438 248.683594 73.148438 245.828125 C 73.148438 232.238281 84.117188 221.203125 97.652344 221.203125 C 111.148438 221.203125 122.113281 232.238281 122.113281 245.828125 C 122.113281 251.0625 120.484375 255.90625 117.746094 259.886719 L 121.214844 260.363281 L 247.929688 260.363281 C 244.929688 256.296875 243.171875 251.277344 243.171875 245.828125 C 243.171875 232.238281 254.140625 221.203125 267.675781 221.203125 C 281.171875 221.203125 292.140625 232.238281 292.140625 245.828125 C 292.140625 251.277344 290.382812 256.296875 287.382812 260.363281 L 296.679688 260.363281 C 296.679688 260.363281 312.1875 258.460938 312.1875 256.167969 C 312.1875 253.875 318.613281 237.863281 318.613281 237.863281 " fill-opacity="1" fill-rule="evenodd"/></g></svg>