<svg xmlns="http://www.w3.org/2000/svg" width="500" zoomAndPan="magnify" viewBox="0 0 375 374.999991" height="500"
     preserveAspectRatio="xMidYMid meet" version="1.0"><defs><g/><clipPath id="ba752d688f"><path d="M 37.5 91.351562 L 337.957031 91.351562 L 337.957031 283.648438 L 37.5 283.648438 Z M 37.5 91.351562 " clip-rule="nonzero"/></clipPath><clipPath id="b47f41b078"><path d="M 54.75 91.351562 L 320.25 91.351562 C 324.824219 91.351562 329.210938 93.171875 332.449219 96.40625 C 335.683594 99.640625 337.5 104.027344 337.5 108.601562 L 337.5 266.398438 C 337.5 270.972656 335.683594 275.359375 332.449219 278.59375 C 329.210938 281.828125 324.824219 283.648438 320.25 283.648438 L 54.75 283.648438 C 50.175781 283.648438 45.789062 281.828125 42.550781 278.59375 C 39.316406 275.359375 37.5 270.972656 37.5 266.398438 L 37.5 108.601562 C 37.5 104.027344 39.316406 99.640625 42.550781 96.40625 C 45.789062 93.171875 50.175781 91.351562 54.75 91.351562 Z M 54.75 91.351562 " clip-rule="nonzero"/></clipPath><clipPath id="ab88ebe34b"><path d="M 56.164062 190.207031 L 318.664062 190.207031 L 318.664062 268 L 56.164062 268 Z M 56.164062 190.207031 " clip-rule="nonzero"/></clipPath></defs><g clip-path="url(#ba752d688f)"><g clip-path="url(#b47f41b078)"><path fill="#737373" d="M 37.5 91.351562 L 337.207031 91.351562 L 337.207031 283.648438 L 37.5 283.648438 Z M 37.5 91.351562 " fill-opacity="1" fill-rule="nonzero"/></g></g><g fill="#ffffff" fill-opacity="1"><g transform="translate(125.110844, 169.430329)"><g><path d="M 24.078125 -31.765625 C 25.890625 -31.722656 27.332031 -32.285156 28.40625 -33.453125 C 29.625 -35.453125 29.625 -37.664062 28.40625 -40.09375 C 27.332031 -41.164062 25.890625 -41.703125 24.078125 -41.703125 L 12.109375 -41.703125 L 12.109375 -31.765625 Z M 1.609375 -42.96875 C 1.609375 -45.675781 2.984375 -47.03125 5.734375 -47.03125 L 24.90625 -47.03125 C 28.363281 -47.03125 31.234375 -46.597656 33.515625 -45.734375 C 35.804688 -44.867188 37.472656 -43.082031 38.515625 -40.375 C 39.566406 -37.664062 39.566406 -35.03125 38.515625 -32.46875 C 37.472656 -29.90625 35.804688 -28.285156 33.515625 -27.609375 C 31.234375 -26.929688 28.363281 -26.59375 24.90625 -26.59375 L 12.109375 -26.59375 L 12.109375 -13.4375 L 1.609375 -13.4375 Z M 1.609375 -42.96875 "/></g></g></g><g fill="#ffffff" fill-opacity="1"><g transform="translate(164.604116, 169.430329)"><g><path d="M 23.234375 -32.609375 C 25.234375 -32.566406 26.863281 -33.125 28.125 -34.28125 C 29.34375 -36.101562 29.34375 -38.039062 28.125 -40.09375 C 26.863281 -41.164062 25.234375 -41.703125 23.234375 -41.703125 L 12.109375 -41.703125 L 12.109375 -32.609375 Z M 1.609375 -42.96875 C 1.609375 -45.675781 2.984375 -47.03125 5.734375 -47.03125 L 23.234375 -47.03125 C 28.179688 -47.03125 31.75 -46.644531 33.9375 -45.875 C 36.132812 -45.101562 37.707031 -43.550781 38.65625 -41.21875 C 39.613281 -38.882812 39.753906 -36.523438 39.078125 -34.140625 C 38.398438 -31.765625 37.023438 -30.132812 34.953125 -29.25 C 32.878906 -28.363281 31.210938 -27.921875 29.953125 -27.921875 L 41.21875 -13.4375 L 29.59375 -13.4375 L 18.6875 -27.4375 L 12.109375 -27.4375 L 12.109375 -13.4375 L 1.609375 -13.4375 Z M 1.609375 -42.96875 "/></g></g></g><g fill="#ffffff" fill-opacity="1"><g transform="translate(205.77663, 169.430329)"><g><path d="M 35.203125 -45.28125 C 40.003906 -43.039062 42.40625 -37.789062 42.40625 -29.53125 C 42.40625 -22.300781 41.0625 -17.660156 38.375 -15.609375 C 35.695312 -13.554688 30.265625 -12.53125 22.078125 -12.53125 C 13.890625 -12.53125 8.789062 -13.320312 6.78125 -14.90625 C 3.46875 -17.425781 1.8125 -22.300781 1.8125 -29.53125 C 1.8125 -37.789062 4.171875 -43.039062 8.890625 -45.28125 C 12.054688 -46.582031 16.4375 -47.234375 22.03125 -47.234375 C 27.632812 -47.234375 32.023438 -46.582031 35.203125 -45.28125 Z M 21.828125 -17.359375 C 28.546875 -17.359375 31.90625 -21.484375 31.90625 -29.734375 C 31.90625 -37.710938 28.546875 -41.703125 21.828125 -41.703125 C 15.390625 -41.703125 12.171875 -37.710938 12.171875 -29.734375 C 12.171875 -21.484375 15.390625 -17.359375 21.828125 -17.359375 Z M 21.828125 -17.359375 "/></g></g></g><g clip-path="url(#ab88ebe34b)"><path fill="#ffffff" d="M 212.628906 211.902344 C 212.628906 211.902344 172.019531 197.015625 164.4375 196.84375 C 156.898438 196.667969 125.367188 201.992188 125.367188 201.992188 L 130.253906 209.4375 C 130.253906 209.4375 192.625 215.144531 212.628906 211.902344 Z M 267.675781 228.171875 C 257.953125 228.171875 250.113281 236.089844 250.113281 245.828125 C 250.113281 255.558594 257.953125 263.480469 267.675781 263.480469 C 277.359375 263.480469 285.199219 255.558594 285.199219 245.828125 C 285.199219 236.089844 277.359375 228.171875 267.675781 228.171875 Z M 267.675781 223.671875 C 255.511719 223.671875 245.65625 233.625 245.65625 245.828125 C 245.65625 258.070312 255.511719 267.980469 267.675781 267.980469 C 279.800781 267.980469 289.652344 258.070312 289.652344 245.828125 C 289.652344 233.625 279.800781 223.671875 267.675781 223.671875 Z M 97.4375 228.171875 C 87.757812 228.171875 79.917969 236.089844 79.917969 245.828125 C 79.917969 255.558594 87.757812 263.480469 97.4375 263.480469 C 107.160156 263.480469 115.003906 255.558594 115.003906 245.828125 C 115.003906 236.089844 107.160156 228.171875 97.4375 228.171875 Z M 97.4375 223.671875 C 85.316406 223.671875 75.421875 233.625 75.421875 245.828125 C 75.421875 258.070312 85.316406 267.980469 97.4375 267.980469 C 109.605469 267.980469 119.457031 258.070312 119.457031 245.828125 C 119.457031 233.625 109.605469 223.671875 97.4375 223.671875 Z M 318.613281 237.863281 C 318.613281 237.863281 287.980469 214.195312 278.558594 211.554688 C 269.089844 208.871094 227.921875 212.507812 227.921875 212.507812 C 227.921875 212.507812 187.871094 191.695312 177.117188 190.917969 C 166.367188 190.179688 137.0625 192.257812 127.253906 194.9375 C 117.402344 197.621094 59.226562 213.070312 59.226562 213.070312 C 59.226562 213.070312 56.398438 222.804688 56.613281 226.398438 C 56.785156 230.03125 63.210938 252.359375 63.210938 252.359375 L 74.519531 253.917969 C 73.664062 251.40625 73.148438 248.683594 73.148438 245.828125 C 73.148438 232.238281 84.117188 221.203125 97.652344 221.203125 C 111.148438 221.203125 122.113281 232.238281 122.113281 245.828125 C 122.113281 251.0625 120.484375 255.90625 117.746094 259.886719 L 121.214844 260.363281 L 247.929688 260.363281 C 244.929688 256.296875 243.171875 251.277344 243.171875 245.828125 C 243.171875 232.238281 254.140625 221.203125 267.675781 221.203125 C 281.171875 221.203125 292.140625 232.238281 292.140625 245.828125 C 292.140625 251.277344 290.382812 256.296875 287.382812 260.363281 L 296.679688 260.363281 C 296.679688 260.363281 312.1875 258.460938 312.1875 256.167969 C 312.1875 253.875 318.613281 237.863281 318.613281 237.863281 " fill-opacity="1" fill-rule="evenodd"/></g></svg>